<svg xmlns="http://www.w3.org/2000/svg" width="81.809" height="91.195" viewBox="0 0 81.809 91.195">
  <g id="Grupo_1317" data-name="Grupo 1317" transform="translate(-575.442 -930.551)">
    <path id="Trazado_1270" data-name="Trazado 1270" d="M582.692,936.22c11.555,5.485,22.74,5.279,33.656-3.156,10.379,7.784,21.7,9.266,34.369,2.812,5.586,12.524,5.461,25.073,2.9,37.687-4,19.7-15.1,34.613-32.2,44.918-2.249,1.354-6.349,1.718-8.645.6-27.035-13.184-42.428-52.807-31.657-80.7A11.445,11.445,0,0,1,582.692,936.22Z" transform="translate(0 0)" fill="none" stroke="#000" stroke-miterlimit="10" stroke-width="4"/>
    <path id="Trazado_1271" data-name="Trazado 1271" d="M615.639,944.984c-10.58-2.45-14.405-1.915-15.432,2.691-1.954,8.767-3.422,17.644-5.183,26.958l12.937.991c-1.207,7.167-2.3,13.652-3.388,20.134l1.7.4c5.358-10.811,10.718-21.622,16.409-33.1l-10.27-1.2C613.561,955.837,614.6,950.4,615.639,944.984Z" transform="translate(10.539 6.357)"/>
  </g>
</svg>
