<svg xmlns="http://www.w3.org/2000/svg" width="134.873" height="66.262" viewBox="0 0 134.873 66.262">
  <g id="Grupo_1318" data-name="Grupo 1318" transform="translate(-912.763 -946.054)">
    <path id="Trazado_1273" data-name="Trazado 1273" d="M1000.935,1053.915c-1.05,1.005-1.422,2.628-3.46,2.724-3.4.161-6.474.014-7.83-4.075.736-.8,1.1-2.315,2.944-2.362C998.217,1050.059,998.638,1050.207,1000.935,1053.915Z" transform="translate(-48.777 -66.054)"/>
    <path id="Trazado_1274" data-name="Trazado 1274" d="M1184.431,1053.67c-1.356,1.08-2.174,2.236-3.167,2.413a11.79,11.79,0,0,1-5.744-.034c-1.326-.471-2.428-2.186-3.064-3.6-.185-.412,1.446-2.187,2.481-2.47a8.709,8.709,0,0,1,5.02.014C1181.447,1050.541,1182.573,1052.076,1184.431,1053.67Z" transform="translate(-164.751 -65.702)"/>
    <path id="Trazado_1275" data-name="Trazado 1275" d="M1092.469,1053.729c-.911.956-1.6,2.323-2.511,2.5a11.466,11.466,0,0,1-5.744-.076c-1.335-.471-2.448-2.137-3.123-3.531-.182-.375,1.457-2.183,2.5-2.473a15.326,15.326,0,0,1,5.06-.082,2.9,2.9,0,0,1,1.6.954C1091.006,1051.8,1091.635,1052.693,1092.469,1053.729Z" transform="translate(-106.785 -65.881)"/>
    <path id="Trazado_1276" data-name="Trazado 1276" d="M1079.511,959.444c1.287-.76,2.412-1.969,3.6-2.031,5.664-.3,5.67-.189,8.472,3.884-1.16.779-2.32,2.222-3.5,2.235C1081.709,963.606,1083.648,964.682,1079.511,959.444Z" transform="translate(-105.791 -7.141)"/>
    <path id="Trazado_1277" data-name="Trazado 1277" d="M1183.372,961.436c-.884.563-2,1.784-3.275,1.988-3.289.523-6.531.333-7.945-3.814.731-.819,1.069-2.425,2.912-2.423C1178.359,957.191,1181.991,956.389,1183.372,961.436Z" transform="translate(-164.566 -7.035)"/>
    <path id="Trazado_1278" data-name="Trazado 1278" d="M1000.759,960.983c-.913,1.1-1.6,2.494-3.749,2.575-3.362.127-6.114-.395-7.49-4.018.826-1.03,1.376-2.453,3.408-2.465C996.227,957.055,999.434,956.861,1000.759,960.983Z" transform="translate(-48.698 -6.988)"/>
    <path id="Trazado_1279" data-name="Trazado 1279" d="M1184.136,1007.223a4.472,4.472,0,0,1-4.746,2.843c-2.327-.075-4.336-.124-5.712-2.426-.855-1.43-.393-3.647,1.278-3.84a21.154,21.154,0,0,1,6.144.055c.9.163,1.583,1.54,2.341,2.388A9.8,9.8,0,0,1,1184.136,1007.223Z" transform="translate(-165.268 -36.511)"/>
    <path id="Trazado_1280" data-name="Trazado 1280" d="M989.653,1006.083c1.158-3.29,4.116-2.038,6.56-2.353,2.846-.367,3.291,2.182,5.2,3.85-1.391.917-2.489,2.168-3.754,2.371C994.338,1010.485,991.021,1010.382,989.653,1006.083Z" transform="translate(-48.782 -36.569)"/>
    <path id="Trazado_1281" data-name="Trazado 1281" d="M1183.909,1100.477c-.965.855-1.761,2.134-2.766,2.326a11.736,11.736,0,0,1-5.768-.07c-1.279-.44-2.379-2.115-2.948-3.493-.183-.444,1.445-2.18,2.478-2.458a15.6,15.6,0,0,1,5.08-.061,2.922,2.922,0,0,1,1.606.948C1182.349,1098.44,1182.98,1099.333,1183.909,1100.477Z" transform="translate(-164.733 -95.474)"/>
    <path id="Trazado_1282" data-name="Trazado 1282" d="M1092.495,1100.156c-1.067,2.258-2.622,2.983-5,2.928-2.389-.055-4.43-.239-5.585-2.617-.263-.541-.743-1.392-.539-1.666.606-.814,1.424-1.84,2.3-2a21.993,21.993,0,0,1,5.254-.058,2.59,2.59,0,0,1,1.46.869C1091.142,1098.391,1091.782,1099.278,1092.495,1100.156Z" transform="translate(-106.943 -95.519)"/>
    <path id="Trazado_1283" data-name="Trazado 1283" d="M1000.6,1100.562c-.878.888-1.283,2.538-3.347,2.529-5.426-.024-5.426.049-7.97-3.86.957-.927,1.262-2.48,3.182-2.48C995.781,1096.752,999.2,1096.227,1000.6,1100.562Z" transform="translate(-48.55 -95.596)"/>
    <path id="Trazado_1284" data-name="Trazado 1284" d="M1080.4,1005.782c.89-.578,1.93-1.807,3.056-1.891,5.56-.415,5.568-.308,8.459,3.475-1.028,1.023-1.386,2.621-3.417,2.736C1085.049,1010.3,1081.97,1010.1,1080.4,1005.782Z" transform="translate(-106.357 -36.59)"/>
    <path id="Trazado_1285" data-name="Trazado 1285" d="M1262.879,1052.786c1.778-2.739,2.573-3.155,4.689-2.472a2.916,2.916,0,0,1,2.156,3.188,3.143,3.143,0,0,1-2.96,2.941,1.879,1.879,0,0,1-1.259-.516C1264.567,1054.915,1263.725,1053.814,1262.879,1052.786Z" transform="translate(-222.127 -65.964)"/>
    <path id="Trazado_1286" data-name="Trazado 1286" d="M1262.988,959.758c1.7-3.04,2.66-3.285,5.058-2.191a3.609,3.609,0,0,1,1.665,2.85,4.192,4.192,0,0,1-1.966,2.682c-.5.322-1.819-.131-2.456-.632A16.513,16.513,0,0,1,1262.988,959.758Z" transform="translate(-222.196 -6.927)"/>
    <path id="Trazado_1287" data-name="Trazado 1287" d="M1262.858,1099.347c1.022-1.6,1.96-3.021,4.164-2.564a3.051,3.051,0,0,1,2.675,2.584,2.971,2.971,0,0,1-1.837,3.4,1.967,1.967,0,0,1-2.717-.614C1264.451,1101.176,1263.63,1100.287,1262.858,1099.347Z" transform="translate(-222.114 -95.573)"/>
    <path id="Trazado_1288" data-name="Trazado 1288" d="M1262.865,1006.375c1.007-1.854,2.175-3.115,4.369-2.565a3.02,3.02,0,0,1,2.477,2.789,2.933,2.933,0,0,1-1.764,3.1,2,2,0,0,1-2.859-.585C1264.424,1008.18,1263.646,1007.328,1262.865,1006.375Z" transform="translate(-222.118 -36.56)"/>
    <path id="Trazado_1289" data-name="Trazado 1289" d="M938.322,1052.566c-2.666,3.223-5.318,6.458-8.022,9.649a1.652,1.652,0,0,1-1.184.358c-.285-.459-.7-1.281-.5-1.527,2.34-2.954,4.73-5.874,7.247-8.677.374-.417,1.471-.185,2.234-.252Z" transform="translate(-10.024 -67.287)"/>
    <path id="Trazado_1290" data-name="Trazado 1290" d="M1029.708,959.539c-2.625,3.184-5.232,6.383-7.9,9.531-.263.309-.9.3-1.367.437-.108-.6-.523-1.431-.275-1.748,2.208-2.824,4.471-5.613,6.881-8.264.455-.5,1.636-.341,2.482-.486Z" transform="translate(-68.091 -8.219)"/>
    <path id="Trazado_1291" data-name="Trazado 1291" d="M1212.426,959.5c-2.817,3.4-5.458,6.616-8.163,9.78-.244.286-.9.216-1.368.312-.093-.543-.39-1.159-.228-1.611a6.175,6.175,0,0,1,1.207-1.572c1.577-1.921,3.224-3.789,4.709-5.778C1209.514,959.383,1210.583,958.99,1212.426,959.5Z" transform="translate(-183.897 -8.393)"/>
    <path id="Trazado_1292" data-name="Trazado 1292" d="M1120.972,1052.438c-2.7,3.258-5.391,6.528-8.136,9.749a1.511,1.511,0,0,1-1.191.18c-.227-.491-.539-1.3-.309-1.591,2.254-2.86,4.552-5.694,6.992-8.395.429-.475,1.576-.3,2.391-.429Z" transform="translate(-125.931 -67.186)"/>
    <path id="Trazado_1293" data-name="Trazado 1293" d="M1212.49,1099.039c-1.524,1.856-2.969,3.62-4.419,5.381-1.159,1.408-2.283,2.85-3.515,4.192-.308.336-.972.346-1.472.506-.059-.637-.4-1.468-.126-1.878.986-1.453,2.183-2.764,3.3-4.127.81-.987,1.693-1.924,2.416-2.972C1209.6,1098.8,1210.753,1098.451,1212.49,1099.039Z" transform="translate(-184.043 -96.885)"/>
    <path id="Trazado_1294" data-name="Trazado 1294" d="M1121.019,959.411c-2.856,3.438-5.577,6.736-8.344,10-.191.225-.954.331-1.057.195a2.091,2.091,0,0,1-.5-1.4,3.436,3.436,0,0,1,.888-1.335c1.654-2.011,3.406-3.948,4.957-6.034A3.312,3.312,0,0,1,1121.019,959.411Z" transform="translate(-125.835 -8.349)"/>
    <path id="Trazado_1295" data-name="Trazado 1295" d="M938.615,1099.082c-2.806,3.407-5.48,6.682-8.209,9.909a1.594,1.594,0,0,1-1.167.167c-.2-.548-.521-1.326-.284-1.708a28.176,28.176,0,0,1,2.4-2.972c1.163-1.4,2.413-2.748,3.454-4.237C935.756,1098.882,936.9,1098.649,938.615,1099.082Z" transform="translate(-10.219 -96.962)"/>
    <path id="Trazado_1296" data-name="Trazado 1296" d="M1212.332,1052.354c-2.873,3.491-5.537,6.758-8.256,9.979a1.476,1.476,0,0,1-1.185.268,2.34,2.34,0,0,1-.45-1.562c.134-.535.689-.969,1.075-1.436,1.623-1.962,3.262-3.91,4.873-5.881C1209.711,1052.108,1209.7,1052.1,1212.332,1052.354Z" transform="translate(-183.766 -67.363)"/>
    <path id="Trazado_1297" data-name="Trazado 1297" d="M1029.96,1052.393c-2.828,3.412-5.482,6.649-8.2,9.831-.229.268-.893.165-1.355.235-.066-.551-.354-1.21-.149-1.628a11.151,11.151,0,0,1,1.566-2c1.432-1.736,2.955-3.405,4.271-5.225A3.06,3.06,0,0,1,1029.96,1052.393Z" transform="translate(-68.151 -67.32)"/>
    <path id="Trazado_1298" data-name="Trazado 1298" d="M938.417,1006.11c-1.13,1.388-2.251,2.782-3.39,4.161-1.506,1.823-3,3.658-4.569,5.425-.262.295-.884.269-1.34.391-.119-.537-.528-1.3-.313-1.576,2.233-2.869,4.5-5.716,6.931-8.418.433-.483,1.635-.275,2.482-.386Z" transform="translate(-10.139 -37.847)"/>
    <path id="Trazado_1299" data-name="Trazado 1299" d="M1112.066,1016.179c-1.394-.781-1.537-1.579-.742-2.54,2.095-2.534,4.122-5.131,6.352-7.541.568-.613,1.787-.622,2.707-.909l.354.553Z" transform="translate(-125.668 -37.518)"/>
    <path id="Trazado_1300" data-name="Trazado 1300" d="M938.455,959.511l-3.542,4.274c-1.47,1.774-2.909,3.575-4.435,5.3-.257.289-.883.252-1.338.366-.117-.533-.522-1.292-.308-1.566,2.243-2.862,4.522-5.7,6.956-8.4.438-.486,1.62-.3,2.458-.426Z" transform="translate(-10.155 -8.25)"/>
    <path id="Trazado_1301" data-name="Trazado 1301" d="M1029.784,1098.983c-2.859,3.44-5.551,6.7-8.286,9.924-.2.241-.934.413-1.041.29a2.353,2.353,0,0,1-.6-1.362c-.008-.347.389-.728.654-1.053,1.841-2.262,3.778-4.452,5.513-6.793C1027.017,1098.652,1028.146,1098.7,1029.784,1098.983Z" transform="translate(-67.946 -96.922)"/>
    <path id="Trazado_1302" data-name="Trazado 1302" d="M1030,1006.08c-2.809,3.412-5.479,6.685-8.207,9.91-.2.242-.82.136-1.244.192-.046-.649-.379-1.5-.088-1.911,1.118-1.579,2.436-3.017,3.679-4.508a26.235,26.235,0,0,0,1.959-2.39C1026.977,1006.022,1028.114,1005.55,1030,1006.08Z" transform="translate(-68.253 -37.948)"/>
    <path id="Trazado_1303" data-name="Trazado 1303" d="M1120.951,1099c-2.651,3.218-5.286,6.451-7.984,9.63-.235.276-.887.2-1.345.285-.094-.546-.468-1.311-.238-1.6,2.2-2.818,4.442-5.617,6.84-8.267.465-.514,1.664-.364,2.524-.52Z" transform="translate(-125.966 -96.732)"/>
    <path id="Trazado_1304" data-name="Trazado 1304" d="M1203.365,1016.163c-1.422-.764-1.569-1.514-.751-2.494,2.1-2.512,4.1-5.105,6.317-7.511.567-.617,1.762-.657,2.668-.963l.358.544Z" transform="translate(-183.576 -37.521)"/>
    <path id="Trazado_1305" data-name="Trazado 1305" d="M1052.2,1003.991c2.584-3.126,5-6.09,7.482-9,.266-.312.892-.319,1.351-.467.124.585.532,1.324.315,1.724a17.449,17.449,0,0,1-2.018,2.58c-1.045,1.269-2.193,2.466-3.119,3.816A3.175,3.175,0,0,1,1052.2,1003.991Z" transform="translate(-88.466 -30.751)"/>
    <path id="Trazado_1306" data-name="Trazado 1306" d="M960.893,1097.066c2.665-3.208,5.162-6.244,7.717-9.23a1.708,1.708,0,0,1,1.174-.151c.163.563.46,1.349.207,1.724-.914,1.355-2.024,2.577-3.065,3.847a30.377,30.377,0,0,0-2.07,2.545C963.964,1097.168,962.79,1097.556,960.893,1097.066Z" transform="translate(-30.535 -89.828)"/>
    <path id="Trazado_1307" data-name="Trazado 1307" d="M1143.581,1096.935c2.543-3.083,4.911-6,7.349-8.852.3-.35.97-.382,1.469-.561.07.646.4,1.426.155,1.909a14.587,14.587,0,0,1-1.911,2.416c-1.08,1.311-2.241,2.564-3.216,3.948C1146.491,1097.126,1145.373,1097.508,1143.581,1096.935Z" transform="translate(-146.44 -89.753)"/>
    <path id="Trazado_1308" data-name="Trazado 1308" d="M1234.8,1004.041c2.626-3.175,5.148-6.253,7.73-9.28.178-.208,1.149-.114,1.174-.016.142.571.365,1.357.1,1.754-.92,1.35-2.034,2.569-3.076,3.836a30.73,30.73,0,0,0-2.071,2.541C1237.749,1004.253,1236.561,1004.528,1234.8,1004.041Z" transform="translate(-204.313 -30.822)"/>
    <path id="Trazado_1309" data-name="Trazado 1309" d="M1143.411,1004c2.587-3.117,4.966-6.023,7.409-8.873.306-.357.953-.422,1.441-.622.074.646.441,1.482.168,1.9a42.249,42.249,0,0,1-2.963,3.685,26.77,26.77,0,0,0-2.185,2.678C1146.392,1004.183,1145.207,1004.413,1143.411,1004Z" transform="translate(-146.332 -30.738)"/>
    <path id="Trazado_1310" data-name="Trazado 1310" d="M961.09,1050.712c2.634-3.2,5.07-6.194,7.575-9.13.217-.255.9-.117,1.359-.162.026.594.31,1.385.034,1.75-1.611,2.122-3.359,4.14-5.052,6.2C963.684,1050.981,963.69,1050.985,961.09,1050.712Z" transform="translate(-30.661 -60.504)"/>
    <path id="Trazado_1311" data-name="Trazado 1311" d="M1052.606,1096.875c2.5-3.017,4.986-6.047,7.529-9.028a1.5,1.5,0,0,1,1.168-.2c.234.482.561,1.28.34,1.564-2.047,2.629-4.138,5.232-6.379,7.694-.429.472-1.573.294-2.387.416Z" transform="translate(-88.722 -89.799)"/>
    <path id="Trazado_1312" data-name="Trazado 1312" d="M1052.531,957.46c2.585-3.124,5.059-6.146,7.593-9.116a1.655,1.655,0,0,1,1.183-.128c.167.561.45,1.348.2,1.728a45.377,45.377,0,0,1-2.949,3.68,34.421,34.421,0,0,0-2.332,2.782C1055.339,957.728,1054.23,957.976,1052.531,957.46Z" transform="translate(-88.674 -1.336)"/>
    <path id="Trazado_1313" data-name="Trazado 1313" d="M961.439,1003.99c2.468-2.989,4.918-5.995,7.435-8.942.233-.273.894-.182,1.356-.26.084.543.443,1.3.211,1.6-2.018,2.587-4.072,5.156-6.291,7.568-.472.513-1.663.364-2.523.521Z" transform="translate(-30.882 -30.919)"/>
    <path id="Trazado_1314" data-name="Trazado 1314" d="M1235.212,1096.764c2.433-2.932,4.849-5.879,7.325-8.774.26-.3.877-.3,1.328-.442.1.6.514,1.436.263,1.758-2.005,2.581-4.068,5.128-6.284,7.526-.455.492-1.633.316-2.478.448Z" transform="translate(-204.574 -89.769)"/>
    <path id="Trazado_1315" data-name="Trazado 1315" d="M1052.66,1050.333c2.474-2.982,4.932-5.977,7.448-8.923a1.524,1.524,0,0,1,1.192-.255c.26.465.61,1.273.4,1.545-2.053,2.641-4.148,5.258-6.4,7.731-.42.462-1.58.252-2.4.352Z" transform="translate(-88.756 -60.307)"/>
    <path id="Trazado_1316" data-name="Trazado 1316" d="M1143.523,1050.72c2.614-3.174,5.018-6.139,7.5-9.036.256-.3.984-.193,1.493-.275-.022.651.213,1.5-.108,1.922-1.578,2.084-3.306,4.054-4.975,6.068C1146.107,1051,1146.11,1051,1143.523,1050.72Z" transform="translate(-146.403 -60.498)"/>
    <path id="Trazado_1317" data-name="Trazado 1317" d="M961.564,957.414c2.436-2.939,4.853-5.9,7.339-8.791.243-.284.914-.2,1.386-.288.088.537.447,1.287.22,1.58-2.013,2.59-4.059,5.164-6.276,7.578-.457.5-1.665.306-2.526.432Z" transform="translate(-30.961 -1.447)"/>
    <path id="Trazado_1318" data-name="Trazado 1318" d="M1235.292,957.319c2.432-2.93,4.846-5.876,7.326-8.766.253-.295.905-.248,1.372-.359.106.543.5,1.309.274,1.6-2.054,2.626-4.152,5.227-6.4,7.685-.421.46-1.571.254-2.385.355Z" transform="translate(-204.625 -1.358)"/>
    <path id="Trazado_1319" data-name="Trazado 1319" d="M1235.218,1050.4c2.437-2.947,4.856-5.91,7.339-8.818.253-.3.893-.262,1.353-.382.113.542.514,1.305.294,1.59-2.01,2.6-4.055,5.18-6.273,7.6-.467.509-1.686.326-2.559.462Z" transform="translate(-204.578 -60.362)"/>
    <path id="Trazado_1320" data-name="Trazado 1320" d="M1144.126,957.3c2.4-2.9,4.788-5.807,7.236-8.664.266-.311.9-.307,1.361-.449.091.59.477,1.407.225,1.736-1.92,2.511-3.886,5-6.027,7.321-.5.545-1.723.43-2.613.619Z" transform="translate(-146.786 -1.351)"/>
    <path id="Trazado_1321" data-name="Trazado 1321" d="M913.276,1007.62a15.362,15.362,0,0,1,1.428-2.607c.78-.893,1.709-1.166,2.494.11a10.1,10.1,0,0,1,.665.864c.36.767,1.9,1.213.827,2.374-.75.811-1.148,2.584-2.69,1.847C914.942,1009.7,914.2,1008.534,913.276,1007.62Z" transform="translate(-0.325 -36.924)"/>
    <path id="Trazado_1322" data-name="Trazado 1322" d="M912.763,1054.181a12.665,12.665,0,0,1,2.4-2.732c.34-.211,1.525.543,2.045,1.113.829.907,2.448,1.776.711,3.358-.748.681-1.3,1.92-2.473,1.132A18.1,18.1,0,0,1,912.763,1054.181Z" transform="translate(0 -66.844)"/>
    <path id="Trazado_1323" data-name="Trazado 1323" d="M919.929,1100.734c-.479.6-.825,1.02-1.155,1.45-.6.78-1.139,1.65-2.362,1.082-1.436-.667-2.32-1.846-1.921-3.335.261-.971,1.271-1.759,2.022-2.556.086-.092.766.2,1.005.461C918.335,1098.732,919.075,1099.694,919.929,1100.734Z" transform="translate(-1.036 -95.993)"/>
    <path id="Trazado_1324" data-name="Trazado 1324" d="M912.952,961.427a15.134,15.134,0,0,1,2.075-2.622c.324-.259,1.218.021,1.759.265a2.294,2.294,0,0,1,.936,1.078c.367.752,1.8,1.242.7,2.4-.819.862-1.393,2.537-2.951,1.661C914.5,963.661,913.878,962.487,912.952,961.427Z" transform="translate(-0.12 -8.024)"/>
    <path id="Trazado_1325" data-name="Trazado 1325" d="M1025.387,1090.838l-1.448,1.692c-1.492-1.813-2.954-3.482-4.255-5.267-.251-.344.128-1.147.215-1.739.511.175,1.188.2,1.505.551C1022.745,1087.556,1023.979,1089.133,1025.387,1090.838Z" transform="translate(-67.781 -88.486)"/>
    <path id="Trazado_1326" data-name="Trazado 1326" d="M1156.873,967.9l1.438-1.742c1.489,1.814,2.954,3.485,4.253,5.275.255.351-.127,1.164-.215,1.763-.51-.17-1.186-.19-1.5-.537C1159.507,971.175,1158.271,969.594,1156.873,967.9Z" transform="translate(-154.873 -12.755)"/>
    <path id="Trazado_1327" data-name="Trazado 1327" d="M974.5,1014.5l1.413-1.695c1.442,1.751,2.844,3.343,4.092,5.048.3.405.074,1.189.091,1.8-.564-.141-1.328-.1-1.658-.456C977.079,1017.729,975.851,1016.138,974.5,1014.5Z" transform="translate(-39.169 -42.351)"/>
    <path id="Trazado_1328" data-name="Trazado 1328" d="M1025.414,1044.33l-1.427,1.711c-1.484-1.8-2.945-3.47-4.246-5.253-.254-.348.113-1.149.194-1.742.511.175,1.185.2,1.5.549C1022.783,1041.075,1024.021,1042.651,1025.414,1044.33Z" transform="translate(-67.815 -58.998)"/>
    <path id="Trazado_1329" data-name="Trazado 1329" d="M1115.25,999.4c-1.367-1.667-2.773-3.251-3.994-4.968-.3-.417.02-1.27.055-1.922.5.177,1.152.213,1.484.556,1.048,1.085,1.919,2.344,2.971,3.425S1116.773,998.431,1115.25,999.4Z" transform="translate(-125.852 -29.476)"/>
    <path id="Trazado_1330" data-name="Trazado 1330" d="M1250.2,1059.588c1.364,1.641,2.776,3.209,4,4.911.306.424.015,1.278,0,1.935-.55-.189-1.258-.223-1.619-.6-1.052-1.084-1.9-2.367-2.949-3.451C1248.491,1061.209,1248.909,1060.443,1250.2,1059.588Z" transform="translate(-213.301 -72.03)"/>
    <path id="Trazado_1331" data-name="Trazado 1331" d="M934.293,997.834l-1.442,1.708c-1.451-1.755-2.891-3.366-4.144-5.111-.287-.4.063-1.257.121-1.9.507.184,1.173.225,1.495.578C931.66,994.579,932.894,996.147,934.293,997.834Z" transform="translate(-10.045 -29.484)"/>
    <path id="Trazado_1332" data-name="Trazado 1332" d="M1065.655,1014.4l1.438-1.714c1.428,1.742,2.833,3.331,4.064,5.046.3.423.04,1.255.037,1.9-.552-.189-1.276-.219-1.625-.6C1068.221,1017.579,1066.992,1016.009,1065.655,1014.4Z" transform="translate(-97.001 -42.276)"/>
    <path id="Trazado_1333" data-name="Trazado 1333" d="M1065.7,1060.927l1.41-1.739c1.489,1.811,2.946,3.473,4.241,5.254.256.352-.113,1.16-.194,1.758-.508-.163-1.187-.172-1.5-.514C1068.324,1064.2,1067.094,1062.624,1065.7,1060.927Z" transform="translate(-97.029 -71.777)"/>
    <path id="Trazado_1334" data-name="Trazado 1334" d="M934.136,951.332l-1.414,1.751c-1.493-1.811-2.956-3.472-4.253-5.252-.262-.36.1-1.173.169-1.777.513.168,1.194.182,1.511.53C931.492,948.058,932.727,949.632,934.136,951.332Z" transform="translate(-9.904 0)"/>
    <path id="Trazado_1335" data-name="Trazado 1335" d="M976.522,966.686c1.345,1.633,2.714,3.168,3.9,4.829.318.443.092,1.277.115,1.931-.593-.2-1.353-.231-1.747-.627-1.02-1.023-1.81-2.275-2.821-3.308C974.868,968.383,975.049,967.57,976.522,966.686Z" transform="translate(-39.652 -13.09)"/>
    <path id="Trazado_1336" data-name="Trazado 1336" d="M1067.142,966.3c1.5,1.8,2.87,3.324,4.069,4.978.313.431.079,1.257.1,1.9-.55-.157-1.288-.143-1.618-.5-1.343-1.46-2.561-3.035-3.917-4.678Z" transform="translate(-97.075 -12.845)"/>
    <path id="Trazado_1337" data-name="Trazado 1337" d="M1206.556,1092.4c-1.388-1.688-2.792-3.263-4.008-4.972-.3-.417.021-1.273.057-1.927a4.761,4.761,0,0,1,1.592.7c1.011,1.034,1.83,2.257,2.843,3.289C1208.11,1090.578,1208.028,1091.427,1206.556,1092.4Z" transform="translate(-183.771 -88.471)"/>
    <path id="Trazado_1338" data-name="Trazado 1338" d="M1206.506,999.378c-1.372-1.646-2.792-3.218-4.023-4.926-.3-.411.038-1.275.083-1.93a4.754,4.754,0,0,1,1.625.7c.97,1,1.736,2.2,2.7,3.2C1207.889,997.455,1208.123,998.326,1206.506,999.378Z" transform="translate(-183.733 -29.481)"/>
    <path id="Trazado_1339" data-name="Trazado 1339" d="M1115.144,1092.5c-1.41-1.687-2.848-3.3-4.127-5.026-.272-.367.031-1.161.07-1.758.547.169,1.258.177,1.608.536,1.05,1.077,1.878,2.373,2.943,3.432C1116.817,1090.861,1116.408,1091.62,1115.144,1092.5Z" transform="translate(-125.709 -88.609)"/>
    <path id="Trazado_1340" data-name="Trazado 1340" d="M1157.019,1060.986l1.387-1.685c1.459,1.762,2.9,3.385,4.171,5.126.275.375-.033,1.178-.072,1.784-.547-.187-1.268-.215-1.612-.589C1159.583,1064.194,1158.395,1062.655,1157.019,1060.986Z" transform="translate(-154.965 -71.848)"/>
    <path id="Trazado_1341" data-name="Trazado 1341" d="M1116.753,1044.392l-1.4,1.7c-1.462-1.751-2.883-3.324-4.123-5.029-.3-.417-.013-1.265,0-1.915.547.2,1.261.24,1.61.618C1114.193,1041.226,1115.423,1042.8,1116.753,1044.392Z" transform="translate(-125.829 -59.061)"/>
    <path id="Trazado_1342" data-name="Trazado 1342" d="M1206.682,953.287c-1.505-1.808-2.885-3.334-4.084-4.99-.328-.454-.118-1.3-.156-1.962.6.187,1.4.193,1.767.593,1.312,1.414,2.48,2.963,3.782,4.559Z" transform="translate(-183.763 -0.178)"/>
    <path id="Trazado_1343" data-name="Trazado 1343" d="M976.517,1106.107c1.314,1.595,2.689,3.139,3.893,4.807.329.456.145,1.282.2,1.939-.6-.182-1.37-.192-1.769-.581-1-.97-1.76-2.175-2.736-3.169C975.027,1108.009,974.805,1107.1,976.517,1106.107Z" transform="translate(-39.653 -101.544)"/>
    <path id="Trazado_1344" data-name="Trazado 1344" d="M1250.265,966.679c1.376,1.655,2.79,3.222,4.015,4.926.295.409-.038,1.27-.083,1.924a4.754,4.754,0,0,1-1.6-.71c-1-1.046-1.8-2.291-2.816-3.324C1248.745,968.444,1248.839,967.641,1250.265,966.679Z" transform="translate(-213.376 -13.085)"/>
    <path id="Trazado_1345" data-name="Trazado 1345" d="M1206.64,1046.063c-1.432-1.733-2.835-3.3-4.056-5-.3-.422-.018-1.266,0-1.915.552.208,1.269.264,1.627.651,1.342,1.453,2.567,3.014,3.9,4.608Z" transform="translate(-183.785 -59.061)"/>
    <path id="Trazado_1346" data-name="Trazado 1346" d="M1025.512,997.877l-1.4,1.645c-1.454-1.76-2.866-3.342-4.1-5.054-.3-.414.006-1.261.034-1.909.544.2,1.258.255,1.6.639C1022.981,994.672,1024.191,996.253,1025.512,997.877Z" transform="translate(-67.963 -29.505)"/>
    <path id="Trazado_1347" data-name="Trazado 1347" d="M976.556,1059.732c1.333,1.594,2.748,3.158,3.983,4.853.307.422.032,1.268.025,1.919a4.9,4.9,0,0,1-1.718-.694c-.979-.982-1.736-2.183-2.707-3.173C975.031,1061.507,974.99,1060.624,976.556,1059.732Z" transform="translate(-39.701 -72.122)"/>
    <path id="Trazado_1348" data-name="Trazado 1348" d="M1248.234,1107.514l1.386-1.669c1.457,1.738,2.894,3.342,4.173,5.064.293.394.036,1.2.032,1.81-.563-.152-1.32-.124-1.654-.487C1250.827,1110.773,1249.613,1109.192,1248.234,1107.514Z" transform="translate(-212.836 -101.378)"/>
    <path id="Trazado_1349" data-name="Trazado 1349" d="M1116.875,951.623l-1.466,1.637c-1.4-1.7-2.767-3.231-3.962-4.887-.328-.454-.144-1.278-.194-1.932.6.172,1.4.159,1.767.552C1114.362,948.438,1115.56,950.017,1116.875,951.623Z" transform="translate(-125.925 -0.246)"/>
    <path id="Trazado_1350" data-name="Trazado 1350" d="M1065.773,1107.516l1.382-1.675c1.476,1.774,2.94,3.424,4.243,5.191.257.349-.1,1.155-.181,1.749-.514-.169-1.2-.184-1.512-.533C1068.374,1110.773,1067.152,1109.2,1065.773,1107.516Z" transform="translate(-97.075 -101.375)"/>
    <path id="Trazado_1351" data-name="Trazado 1351" d="M934.217,1090.911l-1.462,1.6c-1.445-1.752-2.877-3.375-4.146-5.116-.275-.378.034-1.181.074-1.789.545.189,1.264.22,1.606.594C931.624,1087.662,932.841,1089.236,934.217,1090.911Z" transform="translate(-9.982 -88.535)"/>
    <path id="Trazado_1352" data-name="Trazado 1352" d="M934.184,1044.374l-1.4,1.736c-1.477-1.807-2.931-3.477-4.225-5.263-.255-.352.107-1.151.185-1.745.506.188,1.168.234,1.491.589C931.571,1041.162,932.809,1042.726,934.184,1044.374Z" transform="translate(-9.962 -59.034)"/>
    <path id="Trazado_1353" data-name="Trazado 1353" d="M1248.154,1014.436l1.438-1.728c1.43,1.743,2.824,3.31,4.036,5.009.314.44.059,1.288.065,1.948-.557-.2-1.285-.238-1.641-.623C1250.708,1017.591,1249.484,1016.029,1248.154,1014.436Z" transform="translate(-212.785 -42.288)"/>
    <path id="Trazado_1354" data-name="Trazado 1354" d="M1025.347,951.431l-1.386,1.751c-1.5-1.86-2.961-3.581-4.285-5.4-.226-.311.13-1.046.218-1.584.467.118,1.1.083,1.373.381C1022.64,948.1,1023.917,949.709,1025.347,951.431Z" transform="translate(-67.783 -0.091)"/>
    <path id="Trazado_1355" data-name="Trazado 1355" d="M1156.943,1014.5l1.412-1.618c1.453,1.734,2.9,3.353,4.19,5.09.28.377-.013,1.179-.042,1.785-.56-.167-1.31-.161-1.647-.531C1159.513,1017.754,1158.3,1016.164,1156.943,1014.5Z" transform="translate(-154.917 -42.399)"/>
    <path id="Trazado_1356" data-name="Trazado 1356" d="M1156.9,1107.382l1.429-1.751c1.5,1.854,2.972,3.573,4.3,5.394.227.311-.148,1.061-.245,1.608-.509-.174-1.179-.2-1.5-.548C1159.54,1110.62,1158.3,1109.058,1156.9,1107.382Z" transform="translate(-154.888 -101.242)"/>
    <path id="Trazado_1357" data-name="Trazado 1357" d="M1138.937,1052.715a64.448,64.448,0,0,1-4.269,5c-.5.489-1.664.3-2.672.442C1133.939,1054.177,1136.3,1052.277,1138.937,1052.715Z" transform="translate(-139.09 -67.631)"/>
    <path id="Trazado_1358" data-name="Trazado 1358" d="M1230.227,959.748a50.913,50.913,0,0,1-3.887,4.641c-.618.59-1.793.6-2.989.95C1224.9,961.6,1227.6,959.393,1230.227,959.748Z" transform="translate(-197.049 -8.664)"/>
    <path id="Trazado_1359" data-name="Trazado 1359" d="M956.26,1099.019a54.853,54.853,0,0,1-3.967,4.654c-.55.528-1.711.421-2.593.6l-.234-.468a58.586,58.586,0,0,1,4.033-4.8c.511-.5,1.669-.346,2.531-.49Z" transform="translate(-23.286 -96.73)"/>
    <path id="Trazado_1360" data-name="Trazado 1360" d="M948.571,1057.547c1.653-2.011,2.883-3.729,4.366-5.191.521-.514,1.663-.4,2.521-.572l.325.476c-1.419,1.679-2.749,3.45-4.313,4.98C951.018,1057.682,949.892,1057.435,948.571,1057.547Z" transform="translate(-22.718 -67.079)"/>
    <path id="Trazado_1361" data-name="Trazado 1361" d="M1223.278,1103.512a45.853,45.853,0,0,1,3.719-4.4c.655-.617,1.851-.658,2.8-.96l.295.54a57.391,57.391,0,0,1-4.027,4.76c-.549.534-1.715.432-2.6.62Z" transform="translate(-197.003 -96.498)"/>
    <path id="Trazado_1362" data-name="Trazado 1362" d="M948.916,1010.817a59.2,59.2,0,0,1,4.077-4.757c.583-.559,1.714-.547,2.778-.846C954.573,1008.62,951.587,1011.1,948.916,1010.817Z" transform="translate(-22.937 -37.533)"/>
    <path id="Trazado_1363" data-name="Trazado 1363" d="M1047.708,1099.414a51.5,51.5,0,0,1-3.84,4.618c-.616.6-1.776.627-2.922.988C1042.086,1101.562,1045.168,1099.024,1047.708,1099.414Z" transform="translate(-81.324 -97.272)"/>
    <path id="Trazado_1364" data-name="Trazado 1364" d="M1222.388,1057.568a62.123,62.123,0,0,1,4.275-5.154c.555-.543,1.73-.453,2.622-.652l.267.473a63.643,63.643,0,0,1-4.159,4.87C1224.908,1057.579,1223.77,1057.384,1222.388,1057.568Z" transform="translate(-196.438 -67.065)"/>
    <path id="Trazado_1365" data-name="Trazado 1365" d="M1040.373,1010.62a53.5,53.5,0,0,1,3.886-4.646c.621-.6,1.772-.65,2.923-1.028C1046.064,1008.383,1042.984,1010.927,1040.373,1010.62Z" transform="translate(-80.961 -37.363)"/>
    <path id="Trazado_1366" data-name="Trazado 1366" d="M1138.6,1006.028a49.314,49.314,0,0,1-3.813,4.567c-.593.571-1.781.522-2.7.755l-.269-.508a60.3,60.3,0,0,1,4.071-4.774c.518-.5,1.66-.37,2.516-.527Q1138.506,1005.784,1138.6,1006.028Z" transform="translate(-138.979 -37.74)"/>
    <path id="Trazado_1367" data-name="Trazado 1367" d="M1048.029,1052.583c-1.529,1.829-2.742,3.492-4.2,4.906-.527.512-1.636.424-2.636.644C1042.373,1054.856,1045.336,1052.35,1048.029,1052.583Z" transform="translate(-81.483 -67.576)"/>
    <path id="Trazado_1368" data-name="Trazado 1368" d="M949.843,964.768c2.611-4.39,3.939-5.459,6.427-5.239C955.062,962.751,952.333,965.038,949.843,964.768Z" transform="translate(-23.525 -8.532)"/>
    <path id="Trazado_1369" data-name="Trazado 1369" d="M1138.709,1098.951a54.456,54.456,0,0,1-3.955,4.675c-.55.532-1.718.426-2.6.61l-.246-.458a60.546,60.546,0,0,1,4.07-4.769c.52-.506,1.657-.379,2.512-.541Z" transform="translate(-139.032 -96.697)"/>
    <path id="Trazado_1370" data-name="Trazado 1370" d="M1047.564,959.431a54.652,54.652,0,0,1-3.942,4.649c-.542.524-1.7.414-2.573.593l-.227-.5a60.525,60.525,0,0,1,4.038-4.754c.505-.495,1.632-.356,2.474-.507Z" transform="translate(-81.246 -8.159)"/>
    <path id="Trazado_1371" data-name="Trazado 1371" d="M1229.911,1006.07a49.491,49.491,0,0,1-3.82,4.529c-.592.565-1.771.514-2.683.743l-.229-.479a60.373,60.373,0,0,1,4.042-4.779c.51-.5,1.645-.366,2.495-.522Z" transform="translate(-196.939 -37.754)"/>
    <path id="Trazado_1372" data-name="Trazado 1372" d="M1139.132,959.644a57.5,57.5,0,0,1-4.046,4.761c-.573.55-1.712.511-2.808.8C1133.776,961.564,1136.422,959.364,1139.132,959.644Z" transform="translate(-139.269 -8.607)"/>
  </g>
</svg>
