<svg xmlns="http://www.w3.org/2000/svg" width="451.142" height="439.051" viewBox="0 0 451.142 439.051">
  <g id="Grupo_1357" data-name="Grupo 1357" transform="translate(-757 -464)">
    <g id="Grupo_1356" data-name="Grupo 1356" transform="translate(757 464)">
      <path id="Trazado_1453" data-name="Trazado 1453" d="M768.126,469.938c0,2.281-100.993,4.132-225.571,4.132s-225.571-1.851-225.571-4.132,100.993-4.132,225.571-4.132S768.126,467.657,768.126,469.938Z" transform="translate(-316.984 -35.02)" fill="#b0bec5"/>
      <rect id="Rectángulo_750" data-name="Rectángulo 750" width="164.284" height="13.92" transform="translate(38.497 267.993)" fill="#263238"/>
      <g id="Grupo_1342" data-name="Grupo 1342" transform="translate(111.671 201.876)">
        <path id="Trazado_1454" data-name="Trazado 1454" d="M358.981,383.212a3.228,3.228,0,0,0,2.981,3.428h67.654v-6.922h-67.6A3.288,3.288,0,0,0,358.981,383.212Z" transform="translate(-358.981 -379.718)" fill="#263238"/>
        <path id="Trazado_1455" data-name="Trazado 1455" d="M358.981,383.212a3.228,3.228,0,0,0,2.981,3.428h18.885v-6.922H362.018A3.288,3.288,0,0,0,358.981,383.212Z" transform="translate(-358.981 -379.718)" fill="#ff7a11"/>
        <path id="Trazado_1456" data-name="Trazado 1456" d="M359.423,382.681a2.445,2.445,0,0,0,2.26,2.6h15.2v-5.246H361.726A2.493,2.493,0,0,0,359.423,382.681Z" transform="translate(-358.248 -379.195)" fill="#ffde52"/>
        <rect id="Rectángulo_751" data-name="Rectángulo 751" width="11.068" height="6.922" transform="translate(21.864 0.001)" fill="#82322a"/>
        <rect id="Rectángulo_752" data-name="Rectángulo 752" width="5.033" height="6.922" transform="translate(21.864 0.001)" fill="#ff5824"/>
      </g>
      <path id="Trazado_1457" data-name="Trazado 1457" d="M453.123,378.206s-3.2,8.368-.386,8.645,6.459-7.727,6.459-7.727Z" transform="translate(-93.685 -180.351)" fill="#9e9e9e"/>
      <path id="Trazado_1458" data-name="Trazado 1458" d="M454.562,385.315s4.268,1.393,7.163.122a16.109,16.109,0,0,0,3.619-2.056l-7.121.37Z" transform="translate(-88.738 -171.764)" fill="#9e9e9e"/>
      <path id="Trazado_1459" data-name="Trazado 1459" d="M455.946,385.114s4.268,1.393,7.163.122a16.194,16.194,0,0,0,3.619-2.055l-7.121.37Z" transform="translate(-86.442 -172.097)" fill="#9e9e9e"/>
      <path id="Trazado_1460" data-name="Trazado 1460" d="M456.431,382.887l-4.145.029s.066,3.342,4.145,3.342a13.813,13.813,0,0,0,6.781-1.686Z" transform="translate(-92.514 -172.585)" fill="#9e9e9e"/>
      <path id="Trazado_1461" data-name="Trazado 1461" d="M465.331,336.63l-18.954,10.577L439.5,412.625l-48.858-1.539-1.766,6.213,55.882,22.163,9.506-.883,20.228-39.239Z" transform="translate(-197.714 -249.326)" fill="#00695c"/>
      <path id="Trazado_1462" data-name="Trazado 1462" d="M420.473,393.173l79.517-7.212,16,216.247h-15.5L470.117,419.961l-17.076,1.9L434.956,602.208H420.473Z" transform="translate(-145.292 -167.485)" fill="#424242"/>
      <path id="Trazado_1463" data-name="Trazado 1463" d="M425.1,480.017l-7.413-138.385,81.792-8.017,1.771,48-4.411,3.32,7.776,87.871Z" transform="translate(-149.917 -254.328)" fill="#00695c"/>
      <path id="Trazado_1464" data-name="Trazado 1464" d="M417.685,346.8,448.336,330.5l51.144,8.291S458.746,344.127,417.685,346.8Z" transform="translate(-149.918 -259.502)" fill="#00695c"/>
      <path id="Trazado_1465" data-name="Trazado 1465" d="M447.7,369.571c-3.18-.42-3.058-.588-8.889-1.175-3.768-25.021,0-37.232,0-37.232l8.889,1.178S446.233,346.61,447.7,369.571Z" transform="translate(-117.643 -258.395)" fill="#cfd8dc"/>
      <path id="Trazado_1466" data-name="Trazado 1466" d="M431.669,370.215c-3.01.372-2.938.191-8.4,1.04-9.4-21.964-8.871-30.935-8.871-30.935L422.8,336.2S424.857,349.586,431.669,370.215Z" transform="translate(-155.383 -250.043)" fill="#cfd8dc"/>
      <path id="Trazado_1467" data-name="Trazado 1467" d="M499.99,385.961l-79.517,7.212v72.18l28.346-1.39,4.222-42.1,17.075-1.9,7.1,42.611,28.337-1.389Z" transform="translate(-145.292 -167.485)" fill="#424242" opacity="0.2" style="mix-blend-mode: multiply;isolation: isolate"/>
      <g id="Grupo_1343" data-name="Grupo 1343" transform="translate(239.122 125.679)" opacity="0.2" style="mix-blend-mode: multiply;isolation: isolate">
        <path id="Trazado_1468" data-name="Trazado 1468" d="M406.912,412.378l7.921,3.141,9.506-.883,20.228-40.575-6.953-23-15.346,58.65-8.39,1.29-6.967-3.156Z" transform="translate(-406.912 -351.062)" fill="#00695c"/>
      </g>
      <path id="Trazado_1469" data-name="Trazado 1469" d="M417.119,355.025l63.6-11.588s10.394,39.25,19.547,42.414l6.35,70.658,6.068,52.545L422.6,513.471l3.433-49.75Z" transform="translate(-150.857 -238.034)" fill="#cfd8dc"/>
      <g id="Grupo_1344" data-name="Grupo 1344" transform="translate(279.935 135.605)" opacity="0.3" style="mix-blend-mode: multiply;isolation: isolate">
        <path id="Trazado_1470" data-name="Trazado 1470" d="M422.261,371l3.5,22.293,44.837-7.849L466.967,354.8S448.761,386.076,422.261,371Z" transform="translate(-422.261 -354.795)" fill="#cfd8dc"/>
      </g>
      <g id="Grupo_1345" data-name="Grupo 1345" transform="translate(270.304 166.255)" opacity="0.3" style="mix-blend-mode: multiply;isolation: isolate">
        <path id="Trazado_1471" data-name="Trazado 1471" d="M510.16,471.088l-79.96-6.182,2.686-26.9s43.217-13.779,38.388-17.722-38.388.6-38.388.6l-14.247-54.553,4.877,59.432-3.433,49.75Z" transform="translate(-418.639 -366.322)" fill="#cfd8dc"/>
      </g>
      <path id="Trazado_1472" data-name="Trazado 1472" d="M427.8,404.785l-7.437-47.453,49.208-8.533,5.637,47.687Zm-4.4-45.278,6.61,42.191,42.268-7.4-5.015-42.4Z" transform="translate(-145.475 -229.138)" fill="#b0bec5"/>
      <path id="Trazado_1473" data-name="Trazado 1473" d="M426.456,536.148,430,484.906l-8.9-108.271c-7.536-18.837-7.171-26.8-7.153-27.127l.045-.774,10.729-5.26.277,1.787a221.56,221.56,0,0,0,6.948,27.949l43.6-7.945c-2.763-22.179.473-33.113.614-33.576l.33-1.077,11.285,1.494-.133,1.284a236.8,236.8,0,0,0-.311,31.14c3.3,12.609,12.128,39.082,18.65,41.34l.811.279,6.429,71.515,6.227,53.923ZM416.61,350.41c.112,2.342.96,10.3,7.028,25.423l.09.386,8.918,108.669-3.332,48.458,87.169-4.273-5.908-51.136-6.283-69.914c-9.626-5.145-19.158-41.372-19.568-42.954l-.043-.274a256.442,256.442,0,0,1,.2-30.387l-6.451-.854c-.726,3.31-2.531,14.178-.09,32.618l.168,1.255-48.41,8.82-.351-1.122a246.27,246.27,0,0,1-7.076-27.688Z" transform="translate(-156.139 -259.309)" fill="#b0bec5"/>
      <g id="Grupo_1346" data-name="Grupo 1346" transform="translate(269.825 71.011)" opacity="0.2" style="mix-blend-mode: multiply;isolation: isolate">
        <path id="Trazado_1474" data-name="Trazado 1474" d="M445.39,359.776c8.993-1.747,19.895-20.522,22.74-25.872l-20.812-3.358-.3-.043-28.561,15.2C419.485,346.7,435.145,361.768,445.39,359.776Z" transform="translate(-418.459 -330.503)" fill="#00695c"/>
      </g>
      <path id="Trazado_1475" data-name="Trazado 1475" d="M443.849,468.422s-20.788-4.092-28.736,0C415.113,468.422,416.286,471.615,443.849,468.422Z" transform="translate(-154.185 -33.697)" fill="#263238"/>
      <g id="Grupo_1347" data-name="Grupo 1347" transform="translate(275.181 70.995)">
        <path id="Trazado_1476" data-name="Trazado 1476" d="M460.438,333.209,443.71,330.5l-23.237,12.365s6.565,8.057,20.991,4.746S460.438,333.209,460.438,333.209Z" transform="translate(-420.473 -330.497)" fill="#ffa329"/>
      </g>
      <path id="Trazado_1477" data-name="Trazado 1477" d="M474.322,468.422s-20.786-4.092-28.733,0C445.589,468.422,446.759,471.615,474.322,468.422Z" transform="translate(-103.624 -33.697)" fill="#263238"/>
      <path id="Trazado_1478" data-name="Trazado 1478" d="M451.061,333.615l61.53,56.153,2.8,12.053L481.528,449.4l-5.741-4.653,14.085-44.815-41.452-15S443.555,341.887,451.061,333.615Z" transform="translate(-101.499 -254.329)" fill="#00695c"/>
      <path id="Trazado_1479" data-name="Trazado 1479" d="M470.864,359.712l19.387,8.785-26.765,37.611-5.74-4.654Z" transform="translate(-83.457 -211.034)" fill="#ffb74d"/>
      <path id="Trazado_1480" data-name="Trazado 1480" d="M456.395,387.3l6.387-18.026s11.774.293,17.661,9.011L465.725,392.3Z" transform="translate(-85.697 -195.169)" fill="#bdbdbd"/>
      <g id="Grupo_1348" data-name="Grupo 1348" transform="translate(167.304 192.396)">
        <path id="Trazado_1481" data-name="Trazado 1481" d="M379.919,382.108l34.932.242-.037,5.18s-3.949,4.2-5.736,4.672c-7.155,1.891-29.175-7.775-29.175-7.775Z" transform="translate(-379.903 -366.273)" fill="#263238"/>
        <path id="Trazado_1482" data-name="Trazado 1482" d="M591.217,379.986a1.471,1.471,0,0,1-1.423,1.481c-11.205.378-85.049,2.827-111,3.007-28.186.2-85.916,1.845-85.916,1.845l-.045-6.666,196.9-1.556a1.471,1.471,0,0,1,1.484,1.462Z" transform="translate(-358.453 -372.926)" fill="#263238"/>
        <path id="Trazado_1483" data-name="Trazado 1483" d="M591.254,384.076a1.476,1.476,0,0,0-1.444-1.462c-11.21-.221-85.081-1.643-111.031-1.463-28.188.2-85.932-.276-85.932-.276l.045,6.669,196.9-1.558a1.471,1.471,0,0,0,1.462-1.481Z" transform="translate(-358.429 -368.32)" fill="#263238"/>
        <rect id="Rectángulo_753" data-name="Rectángulo 753" width="65.13" height="4.615" transform="translate(25.687 9.934) rotate(-0.399)" fill="#263238"/>
        <rect id="Rectángulo_754" data-name="Rectángulo 754" width="16.963" height="9.549" transform="translate(19.923 7.693) rotate(-0.399)" fill="#263238"/>
        <path id="Trazado_1484" data-name="Trazado 1484" d="M379.919,386.494l34.932-.245-.037-5.18s-3.949-4.2-5.736-4.672c-7.155-1.891-29.175,7.778-29.175,7.778Z" transform="translate(-379.903 -376.153)" fill="#263238"/>
        <path id="Trazado_1485" data-name="Trazado 1485" d="M397.253,384.543a4.416,4.416,0,1,1-3.364-5.26A4.417,4.417,0,0,1,397.253,384.543Z" transform="translate(-365.6 -371.133)" fill="#304249"/>
        <path id="Trazado_1486" data-name="Trazado 1486" d="M395.58,383.667a3.37,3.37,0,1,1-2.569-4.015A3.37,3.37,0,0,1,395.58,383.667Z" transform="translate(-364.948 -370.48)" fill="#263238"/>
      </g>
      <path id="Trazado_1487" data-name="Trazado 1487" d="M470.11,381.071s2.353,4.826,2.353,8.655c0,4.948-3.212,6.5-8.222,6.924-16.3,1.383-8.879-5.422-8.336-7.764,1.234-5.294-1.526-11.365-1.526-11.365l6.4-1.454S467.284,375.418,470.11,381.071Z" transform="translate(-90.081 -183.937)" fill="#bdbdbd"/>
      <path id="Trazado_1488" data-name="Trazado 1488" d="M444.152,323.918s-2.691,19.009,10.479,20.028l-29.763,7.985-1.558-9.525Z" transform="translate(-140.586 -270.416)" fill="#ffa329"/>
      <path id="Trazado_1489" data-name="Trazado 1489" d="M422.832,307.307s9.7-6.9,19.61,1.05,6.823,34.549,6.823,34.549l-8.389,3.236Z" transform="translate(-141.379 -302.58)" fill="#5d4037"/>
      <path id="Trazado_1490" data-name="Trazado 1490" d="M443.368,372.2c-8.073,1.518-18.135-6.916-21.038-17.794l-9.118-36.277,43.512-8.916,5.515,42.2C463.135,358.31,450.715,370.818,443.368,372.2Z" transform="translate(-157.339 -294.811)" fill="#ffb74d"/>
      <path id="Trazado_1491" data-name="Trazado 1491" d="M424.588,316.888s6.539-2.943,9.788,5.379c3.68,9.418,2.412,21.57,2.412,21.57l5.632-2.7-1.566-29.159-7.35-4.433S423.705,309.892,424.588,316.888Z" transform="translate(-138.559 -297.576)" fill="#5d4037"/>
      <rect id="Rectángulo_755" data-name="Rectángulo 755" width="40.496" height="2.208" transform="translate(257.873 40.575) rotate(-11.027)" fill="#263238"/>
      <path id="Trazado_1492" data-name="Trazado 1492" d="M419.673,322.6c.271,1.191-.12,2.3-.872,2.468s-1.582-.654-1.853-1.845.12-2.295.872-2.468S419.4,321.413,419.673,322.6Z" transform="translate(-151.284 -275.699)" fill="#5e431f"/>
      <path id="Trazado_1493" data-name="Trazado 1493" d="M426.6,321.2c.271,1.191-.12,2.295-.872,2.465s-1.582-.654-1.853-1.845.12-2.295.872-2.465S426.328,320.006,426.6,321.2Z" transform="translate(-139.793 -278.029)" fill="#5e431f"/>
      <path id="Trazado_1494" data-name="Trazado 1494" d="M439.31,317.24l-9.825-1.1a2.773,2.773,0,0,0-.917,2.428l.162-.032a16.974,16.974,0,0,1,1.348,5.946l.016.032,9.658-5.254Z" transform="translate(-131.864 -283.314)" fill="#263238"/>
      <g id="Grupo_1349" data-name="Grupo 1349" transform="translate(300.614 34.955)">
        <path id="Trazado_1495" data-name="Trazado 1495" d="M440.77,325.55c0,4.754-3.962,8.607-6.924,8.607s-3.808-3.853-3.808-8.607,2.4-8.607,5.366-8.607S440.77,320.8,440.77,325.55Z" transform="translate(-430.038 -316.943)" fill="#ffb74d"/>
        <path id="Trazado_1496" data-name="Trazado 1496" d="M436.575,322.964c0,2.465-2.055,4.465-3.592,4.465s-1.973-2-1.973-4.465,1.244-4.462,2.781-4.462S436.575,320.5,436.575,322.964Z" transform="translate(-428.425 -314.357)" fill="#ffa329"/>
      </g>
      <path id="Trazado_1497" data-name="Trazado 1497" d="M420.6,326.436s3.092,1.032,7.506-1.84C428.1,324.6,426.041,335.267,420.6,326.436Z" transform="translate(-145.09 -269.291)" fill="#ffa329"/>
      <path id="Trazado_1498" data-name="Trazado 1498" d="M445.775,324.954s-8.831,11.774-23.844,5.3c0,0-10.711-.077-6.312,8.5,0,0-9.142-7.615.718-13.207a5.413,5.413,0,0,0-4.576,1.324s7.355-34.076,42.882-19.4A38.134,38.134,0,0,1,445.775,324.954Z" transform="translate(-159.746 -303.797)" fill="#5d4037"/>
      <path id="Trazado_1499" data-name="Trazado 1499" d="M419.455,315.672s-5.555-3.244-1.9,13.675c0,0-6.528-13.715-3.967-16.345s0,.564,0,.564Z" transform="translate(-157.71 -290.247)" fill="#5d4037"/>
      <path id="Trazado_1500" data-name="Trazado 1500" d="M420.16,331.037a21.551,21.551,0,0,0,17.289-4.5S430.19,338.762,420.16,331.037Z" transform="translate(-145.812 -266.078)" fill="#c67030"/>
      <path id="Trazado_1501" data-name="Trazado 1501" d="M422.44,331.57a12.984,12.984,0,0,0,7.937-2.305S427.527,338.744,422.44,331.57Z" transform="translate(-142.029 -261.545)" fill="#ffa329"/>
      <g id="Grupo_1352" data-name="Grupo 1352" transform="translate(259.37 35.226)">
        <g id="Grupo_1350" data-name="Grupo 1350" transform="translate(6.781 3.441)" opacity="0.3" style="mix-blend-mode: multiply;isolation: isolate">
          <path id="Trazado_1502" data-name="Trazado 1502" d="M417.077,332.929c.12-.011.223.005.346-.013,8.793-1.247,8.7-6.618,11.46-7.28,2.6-.622,4.823,4.853,13.62,2.776-3.6.085-11.511-.814-12.37-10.072l-5.121,1C425.663,321.679,427.4,330.6,417.077,332.929Z" transform="translate(-417.077 -318.339)" fill="#00bcd4"/>
        </g>
        <g id="Grupo_1351" data-name="Grupo 1351" opacity="0.6">
          <path id="Trazado_1503" data-name="Trazado 1503" d="M414.527,324.352l37.495-7.307s4.768,10.365-3.523,13.021c-10.283,3.3-12.625-2.946-15.385-2.284s-2.667,6.033-11.46,7.281C414.394,336.094,414.527,324.352,414.527,324.352Z" transform="translate(-414.527 -317.045)" fill="#00bcd4"/>
        </g>
      </g>
      <path id="Trazado_1504" data-name="Trazado 1504" d="M436.836,366.086v23.78l-47.961-19.021,1.766-6.213Z" transform="translate(-197.714 -202.871)" fill="#ffb74d"/>
      <path id="Trazado_1505" data-name="Trazado 1505" d="M411.836,364.192s.55,12.014-2.393,18.488l-20.9-11.1,1.1-7.389Z" transform="translate(-198.265 -203.605)" fill="#9e9e9e"/>
      <path id="Trazado_1506" data-name="Trazado 1506" d="M403.975,368.207s-16.725-9.541-23.5-5.4c-2.561,3.388,4.007,15.215,7.815,15.167,5.2.87,14.582-2.38,14.582-2.38S408.02,369.09,403.975,368.207Z" transform="translate(-212.599 -207.624)" fill="#9e9e9e"/>
      <g id="Grupo_1353" data-name="Grupo 1353" transform="translate(152.004 131.424)">
        <rect id="Rectángulo_756" data-name="Rectángulo 756" width="5.961" height="43.935" transform="matrix(0.82, -0.572, 0.572, 0.82, 12.648, 15.016)" fill="#795548"/>
        <rect id="Rectángulo_757" data-name="Rectángulo 757" width="7.212" height="2.978" transform="matrix(0.82, -0.572, 0.572, 0.82, 10.978, 13.717)" fill="#263238"/>
        <path id="Trazado_1507" data-name="Trazado 1507" d="M386.492,355.975l-12.279,8.573c-.683.479,4.371,7.719,5.055,7.241l12.279-8.573,6.637-8.958a.648.648,0,0,0-.678-1.016Z" transform="translate(-374.149 -353.223)" fill="#263238"/>
      </g>
      <path id="Trazado_1508" data-name="Trazado 1508" d="M381.071,362.682s9.312-2.1,9.849.354-8.65,4.092-8.65,4.092a2.269,2.269,0,0,1-2.643-1.795A2.1,2.1,0,0,1,381.071,362.682Z" transform="translate(-213.19 -207.496)" fill="#9e9e9e"/>
      <path id="Trazado_1509" data-name="Trazado 1509" d="M381.161,364.637s9.131-2.789,9.849-.378-8.32,4.725-8.32,4.725a2.272,2.272,0,0,1-2.771-1.593A2.1,2.1,0,0,1,381.161,364.637Z" transform="translate(-212.802 -205.117)" fill="#9e9e9e"/>
      <path id="Trazado_1510" data-name="Trazado 1510" d="M381.844,366.432s8.836-3.616,9.772-1.282-7.852,5.47-7.852,5.47a2.268,2.268,0,0,1-2.9-1.332A2.1,2.1,0,0,1,381.844,366.432Z" transform="translate(-211.384 -203.314)" fill="#9e9e9e"/>
      <path id="Trazado_1511" data-name="Trazado 1511" d="M382.817,368.215s7.6-4.108,8.674-2.1-6.541,5.68-6.541,5.68a2.055,2.055,0,0,1-2.741-.92A1.9,1.9,0,0,1,382.817,368.215Z" transform="translate(-209.286 -201.324)" fill="#9e9e9e"/>
      <path id="Trazado_1512" data-name="Trazado 1512" d="M399.793,368.981s-6.076-7.751-9.315-7.679-8.535.662-8.02,2.648,7.948,2.21,7.948,2.21,1.4,6.624,5.151,6.475A4.344,4.344,0,0,0,399.793,368.981Z" transform="translate(-208.417 -208.397)" fill="#bdbdbd"/>
      <path id="Trazado_1513" data-name="Trazado 1513" d="M458.621,385.523s-.072-4.648-3.425-4.648c-1.667,0-2.1.053-2.89,0a6.84,6.84,0,0,1,3.826-4.106C459.326,375.262,458.919,384.127,458.621,385.523Z" transform="translate(-92.48 -183.02)" fill="#bdbdbd"/>
      <path id="Trazado_1514" data-name="Trazado 1514" d="M362.949,387.2l2.355-1.913-11.7-11.407Z" transform="translate(-256.232 -187.523)" fill="#ff5824"/>
      <path id="Trazado_1515" data-name="Trazado 1515" d="M360.417,382.58l-1.251-7.506,4.636,7.506Z" transform="translate(-247.002 -185.548)" fill="#ff5824"/>
      <path id="Trazado_1516" data-name="Trazado 1516" d="M362.324,380v2.649l-8.831-1.325Z" transform="translate(-256.415 -177.375)" fill="#ff5824"/>
      <g id="Grupo_1354" data-name="Grupo 1354" transform="translate(59.262 208.284)">
        <path id="Trazado_1517" data-name="Trazado 1517" d="M353.153,382.128h70.055v11.45s-25.42,5.039-28.468,21.53H364.233a11.835,11.835,0,0,0-11.08-11.553Z" transform="translate(-316.24 -382.128)" fill="#263238"/>
        <path id="Trazado_1518" data-name="Trazado 1518" d="M384.99,401.871l-22.86-3.255s-19.419-1.681-22.86-16.489h43.754Z" transform="translate(-339.271 -382.128)" fill="#263238"/>
        <path id="Trazado_1519" data-name="Trazado 1519" d="M376.184,382.128H339.271c3.441,14.808,22.86,16.489,22.86,16.489l14.053,2v2.688h48.947c8.522-7.224,21.107-9.729,21.107-9.729v-11.45H376.184Z" transform="translate(-339.271 -382.128)" fill="#304249"/>
        <path id="Trazado_1520" data-name="Trazado 1520" d="M371.506,396.167s-.122,13.4-22.737,17.869v9.392H423.74v-9.392s-22.285-5.549-21.727-17.869C402.013,396.167,388.774,390.267,371.506,396.167Z" transform="translate(-323.513 -363.187)" fill="#263238"/>
        <path id="Trazado_1521" data-name="Trazado 1521" d="M339.271,382.128H446.239S396.932,384.383,339.271,382.128Z" transform="translate(-339.271 -382.128)" fill="#ffde52"/>
        <rect id="Rectángulo_758" data-name="Rectángulo 758" width="22.737" height="9.39" transform="translate(25.256 50.85)" fill="#304249"/>
        <rect id="Rectángulo_759" data-name="Rectángulo 759" width="22.737" height="9.39" transform="translate(77.351 50.85)" fill="#304249"/>
      </g>
      <rect id="Rectángulo_760" data-name="Rectángulo 760" width="133.364" height="30.909" transform="translate(53.957 279.853)" fill="#263238"/>
      <rect id="Rectángulo_761" data-name="Rectángulo 761" width="103.951" height="15.455" transform="translate(68.663 403.048)" fill="#263238"/>
      <rect id="Rectángulo_762" data-name="Rectángulo 762" width="12.805" height="128.472" transform="translate(63.43 307.671)" fill="#263238"/>
      <rect id="Rectángulo_763" data-name="Rectángulo 763" width="12.805" height="128.472" transform="translate(164.198 307.671)" fill="#263238"/>
      <g id="Grupo_1355" data-name="Grupo 1355" transform="translate(342.387 114.71)" opacity="0.2" style="mix-blend-mode: multiply;isolation: isolate">
        <path id="Trazado_1522" data-name="Trazado 1522" d="M490.769,380.906l19.387,8.783,7.094-9.969-7.094,7.36-14.7-7.27c2.648-7.113,4.635-13.744,4.635-13.744-3.015,1.766-7.578,4.882-7.578,4.882l-46.658-24.011a57.31,57.31,0,0,0,5.526,28.319h0l-1.1-12.423,41.452,15Z" transform="translate(-445.748 -346.937)" fill="#00695c"/>
      </g>
    </g>
  </g>
</svg>
