<svg xmlns="http://www.w3.org/2000/svg" width="89.107" height="76.548" viewBox="0 0 89.107 76.548">
  <g id="Grupo_1319" data-name="Grupo 1319" transform="translate(1674.296 -758.415)">
    <path id="Trazado_1374" data-name="Trazado 1374" d="M-1674.3,898.471l22.051,1.177.342-1.838h44.077v3.373c-2.2.612-4.516,1.073-6.7,1.9q-8.311,3.139-16.505,6.581a14.582,14.582,0,0,0-3.677,2.561,8.409,8.409,0,0,0-.437,12.147,5.992,5.992,0,0,0,2.754,1.676c1.778.378,1.885,1.33,1.417,2.86-.442.037-.936.115-1.431.115-7.561.008-15.121.026-22.682-.029-.663,0-1.709-.342-1.9-.805a1.693,1.693,0,0,1,1.076-2.324c3.737-1.755,5.386-4.867,5.353-8.925a18.325,18.325,0,0,0-.2-2.929c-.819-4.783-.848-4.729-5.574-5.787-5.868-1.314-11.356-3.484-15.936-7.542-.517-.458-1-.96-1.476-1.459A7.593,7.593,0,0,1-1674.3,898.471Z" transform="translate(0 -94.066)"/>
    <path id="Trazado_1375" data-name="Trazado 1375" d="M-1522.144,753.915a3.267,3.267,0,0,1,.772.22c1.217.719,1.326,2.005,1.42,3.189.08,1.012-.788,1.4-1.645,1.666q-8.353,2.611-16.7,5.233l-28.848,9.052c-1.47.461-1.469.459-1.918-.981-.22-.705-.411-1.423-.681-2.109-.342-.867-.178-1.3.8-1.6,6-1.841,11.978-3.75,17.964-5.635q13.788-4.343,27.577-8.682C-1522.986,754.135-1522.557,754.029-1522.144,753.915Z" transform="translate(-65.242 4.5)"/>
    <path id="Trazado_1376" data-name="Trazado 1376" d="M-1593.773,818.107a3.341,3.341,0,0,1-2.33,3.321,43.383,43.383,0,0,1-5.13,1.4,2.539,2.539,0,0,1-3.193-1.862q-3.866-12.253-7.713-24.512c-.988-3.155-.406-4.229,2.77-5.256,1.15-.372,2.3-.756,3.462-1.076a2.918,2.918,0,0,1,3.944,2.034c2.21,6.841,4.354,13.7,6.517,20.559C-1594.844,814.629-1594.258,816.544-1593.773,818.107Z" transform="translate(-41.347 -26.561)"/>
  </g>
</svg>
