<svg xmlns="http://www.w3.org/2000/svg" width="517" height="404.42" viewBox="0 0 517 404.42">
  <g id="Grupo_1364" data-name="Grupo 1364" transform="translate(-98.745 -369.722)">
    <g id="Grupo_1358" data-name="Grupo 1358" transform="translate(453.65 516.176)">
      <rect id="Rectángulo_764" data-name="Rectángulo 764" width="10.901" height="84.498" transform="translate(1.643 0)" fill="#37474f"/>
      <path id="Trazado_1523" data-name="Trazado 1523" d="M253.816,429.538c0,.844-3.1,1.53-6.912,1.53s-6.912-.686-6.912-1.53,3.093-1.53,6.912-1.53S253.816,428.694,253.816,429.538Z" transform="translate(-239.991 -428.008)" fill="#37474f"/>
      <path id="Trazado_1524" data-name="Trazado 1524" d="M253.816,430.574c0,.844-3.1,1.53-6.912,1.53s-6.912-.686-6.912-1.53,3.093-1.53,6.912-1.53S253.816,429.73,253.816,430.574Z" transform="translate(-239.991 -426.441)" fill="#37474f"/>
      <path id="Trazado_1525" data-name="Trazado 1525" d="M253.816,431.448c0,.844-3.1,1.53-6.912,1.53s-6.912-.686-6.912-1.53,3.093-1.53,6.912-1.53S253.816,430.6,253.816,431.448Z" transform="translate(-239.991 -425.119)" fill="#37474f"/>
      <path id="Trazado_1526" data-name="Trazado 1526" d="M253.816,432.484c0,.844-3.1,1.528-6.912,1.528s-6.912-.683-6.912-1.528,3.093-1.53,6.912-1.53S253.816,431.637,253.816,432.484Z" transform="translate(-239.991 -423.552)" fill="#37474f"/>
      <path id="Trazado_1527" data-name="Trazado 1527" d="M253.816,433.439c0,.847-3.1,1.53-6.912,1.53s-6.912-.684-6.912-1.53,3.093-1.528,6.912-1.528S253.816,432.594,253.816,433.439Z" transform="translate(-239.991 -422.104)" fill="#37474f"/>
      <path id="Trazado_1528" data-name="Trazado 1528" d="M253.816,434.476c0,.847-3.1,1.53-6.912,1.53s-6.912-.683-6.912-1.53,3.093-1.53,6.912-1.53S253.816,433.632,253.816,434.476Z" transform="translate(-239.991 -420.538)" fill="#37474f"/>
      <path id="Trazado_1529" data-name="Trazado 1529" d="M253.816,435.35c0,.844-3.1,1.53-6.912,1.53s-6.912-.686-6.912-1.53,3.093-1.53,6.912-1.53S253.816,434.506,253.816,435.35Z" transform="translate(-239.991 -419.216)" fill="#37474f"/>
      <path id="Trazado_1530" data-name="Trazado 1530" d="M253.816,436.386c0,.844-3.1,1.53-6.912,1.53s-6.912-.686-6.912-1.53,3.093-1.53,6.912-1.53S253.816,435.542,253.816,436.386Z" transform="translate(-239.991 -417.649)" fill="#37474f"/>
      <path id="Trazado_1531" data-name="Trazado 1531" d="M253.816,437.3c0,.847-3.1,1.53-6.912,1.53s-6.912-.683-6.912-1.53,3.093-1.53,6.912-1.53S253.816,436.457,253.816,437.3Z" transform="translate(-239.991 -416.265)" fill="#37474f"/>
      <path id="Trazado_1532" data-name="Trazado 1532" d="M253.816,438.337c0,.844-3.1,1.53-6.912,1.53s-6.912-.686-6.912-1.53,3.093-1.53,6.912-1.53S253.816,437.493,253.816,438.337Z" transform="translate(-239.991 -414.698)" fill="#37474f"/>
      <path id="Trazado_1533" data-name="Trazado 1533" d="M253.816,439.211c0,.844-3.1,1.53-6.912,1.53s-6.912-.686-6.912-1.53,3.093-1.53,6.912-1.53S253.816,438.367,253.816,439.211Z" transform="translate(-239.991 -413.376)" fill="#37474f"/>
      <path id="Trazado_1534" data-name="Trazado 1534" d="M253.816,440.247c0,.844-3.1,1.53-6.912,1.53s-6.912-.686-6.912-1.53,3.093-1.53,6.912-1.53S253.816,439.4,253.816,440.247Z" transform="translate(-239.991 -411.809)" fill="#37474f"/>
      <path id="Trazado_1535" data-name="Trazado 1535" d="M253.816,441.2c0,.844-3.1,1.53-6.912,1.53s-6.912-.686-6.912-1.53,3.093-1.53,6.912-1.53S253.816,440.358,253.816,441.2Z" transform="translate(-239.991 -410.361)" fill="#37474f"/>
      <path id="Trazado_1536" data-name="Trazado 1536" d="M253.816,442.24c0,.844-3.1,1.528-6.912,1.528s-6.912-.683-6.912-1.528,3.093-1.53,6.912-1.53S253.816,441.393,253.816,442.24Z" transform="translate(-239.991 -408.794)" fill="#37474f"/>
      <path id="Trazado_1537" data-name="Trazado 1537" d="M253.816,443.112c0,.847-3.1,1.53-6.912,1.53s-6.912-.684-6.912-1.53,3.093-1.528,6.912-1.528S253.816,442.267,253.816,443.112Z" transform="translate(-239.991 -407.472)" fill="#37474f"/>
      <path id="Trazado_1538" data-name="Trazado 1538" d="M253.816,444.149c0,.847-3.1,1.53-6.912,1.53s-6.912-.684-6.912-1.53,3.093-1.53,6.912-1.53S253.816,443.3,253.816,444.149Z" transform="translate(-239.991 -405.906)" fill="#37474f"/>
      <path id="Trazado_1539" data-name="Trazado 1539" d="M253.816,445.15c0,.847-3.1,1.53-6.912,1.53s-6.912-.684-6.912-1.53,3.093-1.53,6.912-1.53S253.816,444.306,253.816,445.15Z" transform="translate(-239.991 -404.392)" fill="#37474f"/>
      <path id="Trazado_1540" data-name="Trazado 1540" d="M253.816,446.186c0,.844-3.1,1.53-6.912,1.53s-6.912-.686-6.912-1.53,3.093-1.53,6.912-1.53S253.816,445.342,253.816,446.186Z" transform="translate(-239.991 -402.825)" fill="#37474f"/>
      <path id="Trazado_1541" data-name="Trazado 1541" d="M253.816,447.06c0,.844-3.1,1.53-6.912,1.53s-6.912-.686-6.912-1.53,3.093-1.53,6.912-1.53S253.816,446.216,253.816,447.06Z" transform="translate(-239.991 -401.503)" fill="#37474f"/>
      <path id="Trazado_1542" data-name="Trazado 1542" d="M253.816,448.1c0,.844-3.1,1.53-6.912,1.53s-6.912-.686-6.912-1.53,3.093-1.53,6.912-1.53S253.816,447.252,253.816,448.1Z" transform="translate(-239.991 -399.936)" fill="#37474f"/>
      <path id="Trazado_1543" data-name="Trazado 1543" d="M253.816,449.053c0,.844-3.1,1.53-6.912,1.53s-6.912-.686-6.912-1.53,3.093-1.53,6.912-1.53S253.816,448.206,253.816,449.053Z" transform="translate(-239.991 -398.488)" fill="#37474f"/>
      <path id="Trazado_1544" data-name="Trazado 1544" d="M253.816,450.089c0,.844-3.1,1.528-6.912,1.528s-6.912-.684-6.912-1.528,3.093-1.53,6.912-1.53S253.816,449.242,253.816,450.089Z" transform="translate(-239.991 -396.921)" fill="#37474f"/>
      <path id="Trazado_1545" data-name="Trazado 1545" d="M253.816,450.961c0,.847-3.1,1.53-6.912,1.53s-6.912-.684-6.912-1.53,3.093-1.528,6.912-1.528S253.816,450.116,253.816,450.961Z" transform="translate(-239.991 -395.599)" fill="#37474f"/>
      <path id="Trazado_1546" data-name="Trazado 1546" d="M253.816,452c0,.847-3.1,1.53-6.912,1.53s-6.912-.684-6.912-1.53,3.093-1.53,6.912-1.53S253.816,451.154,253.816,452Z" transform="translate(-239.991 -394.033)" fill="#37474f"/>
      <path id="Trazado_1547" data-name="Trazado 1547" d="M253.816,452.955c0,.844-3.1,1.53-6.912,1.53s-6.912-.686-6.912-1.53,3.093-1.53,6.912-1.53S253.816,452.111,253.816,452.955Z" transform="translate(-239.991 -392.586)" fill="#37474f"/>
      <path id="Trazado_1548" data-name="Trazado 1548" d="M253.816,453.991c0,.844-3.1,1.53-6.912,1.53s-6.912-.686-6.912-1.53,3.093-1.53,6.912-1.53S253.816,453.147,253.816,453.991Z" transform="translate(-239.991 -391.019)" fill="#37474f"/>
      <path id="Trazado_1549" data-name="Trazado 1549" d="M253.816,454.865c0,.844-3.1,1.53-6.912,1.53s-6.912-.686-6.912-1.53,3.093-1.53,6.912-1.53S253.816,454.021,253.816,454.865Z" transform="translate(-239.991 -389.697)" fill="#37474f"/>
      <path id="Trazado_1550" data-name="Trazado 1550" d="M253.816,455.9c0,.844-3.1,1.53-6.912,1.53s-6.912-.686-6.912-1.53,3.093-1.53,6.912-1.53S253.816,455.054,253.816,455.9Z" transform="translate(-239.991 -388.129)" fill="#37474f"/>
      <path id="Trazado_1551" data-name="Trazado 1551" d="M253.816,456.858c0,.844-3.1,1.528-6.912,1.528s-6.912-.683-6.912-1.528,3.093-1.53,6.912-1.53S253.816,456.011,253.816,456.858Z" transform="translate(-239.991 -386.682)" fill="#37474f"/>
      <path id="Trazado_1552" data-name="Trazado 1552" d="M253.816,457.892c0,.847-3.1,1.53-6.912,1.53s-6.912-.684-6.912-1.53,3.093-1.528,6.912-1.528S253.816,457.047,253.816,457.892Z" transform="translate(-239.991 -385.115)" fill="#37474f"/>
      <path id="Trazado_1553" data-name="Trazado 1553" d="M253.816,458.767c0,.847-3.1,1.53-6.912,1.53s-6.912-.683-6.912-1.53,3.093-1.53,6.912-1.53S253.816,457.923,253.816,458.767Z" transform="translate(-239.991 -383.794)" fill="#37474f"/>
      <path id="Trazado_1554" data-name="Trazado 1554" d="M253.816,459.8c0,.844-3.1,1.53-6.912,1.53s-6.912-.686-6.912-1.53,3.093-1.53,6.912-1.53S253.816,458.959,253.816,459.8Z" transform="translate(-239.991 -382.227)" fill="#37474f"/>
      <path id="Trazado_1555" data-name="Trazado 1555" d="M253.816,460.677c0,.844-3.1,1.53-6.912,1.53s-6.912-.686-6.912-1.53,3.093-1.53,6.912-1.53S253.816,459.833,253.816,460.677Z" transform="translate(-239.991 -380.905)" fill="#37474f"/>
      <path id="Trazado_1556" data-name="Trazado 1556" d="M253.816,461.713c0,.844-3.1,1.53-6.912,1.53s-6.912-.686-6.912-1.53,3.093-1.53,6.912-1.53S253.816,460.869,253.816,461.713Z" transform="translate(-239.991 -379.338)" fill="#37474f"/>
    </g>
    <path id="Trazado_1557" data-name="Trazado 1557" d="M197.57,404.881c6.5,3.442-1.7,68.671-1.7,68.671l21.7,47.289-10.85,5.566-35.2-31.8-4.583-9.37V449.074S191.069,401.441,197.57,404.881Z" transform="translate(103.149 52.915)" fill="#616161"/>
    <path id="Trazado_1558" data-name="Trazado 1558" d="M196.959,442.788,175.57,460.194l30.606,20.277,8-5.913Z" transform="translate(116.211 110.525)" fill="#9e9e9e"/>
    <path id="Trazado_1559" data-name="Trazado 1559" d="M196.758,455.872s13.619,13.531,11.516,21.8c-2.663,3.7-16.9.719-18.061-3.206a35.211,35.211,0,0,1-3.126-13.79C187.137,458.729,192.594,453.158,196.758,455.872Z" transform="translate(133.628 129.211)" fill="#919191"/>
    <path id="Trazado_1560" data-name="Trazado 1560" d="M98.745,531.471c0,2.156,115.734,3.9,258.5,3.9s258.5-1.749,258.5-3.9-115.734-3.9-258.5-3.9S98.745,529.312,98.745,531.471Z" transform="translate(0 238.766)" fill="#b0bec5"/>
    <path id="Trazado_1561" data-name="Trazado 1561" d="M210.155,454.474l-75.14-6.815L135.3,652h14.644l13.3-172.216,16.136,1.794L201.643,652h13.686Z" transform="translate(54.865 117.892)" fill="#424242"/>
    <path id="Trazado_1562" data-name="Trazado 1562" d="M213.9,530.543s2.618-37.439,5.214-48.517c4.452-19.006,28.323-69.661,28.323-69.661L161.4,399.756s-18.018,49.389-20.654,67.789c-1.872,13.051-6.779,58.435-6.779,58.435Z" transform="translate(53.281 45.432)" fill="#616161"/>
    <path id="Trazado_1563" data-name="Trazado 1563" d="M230.922,417.083l-37.71-20.446-48.326,7.837S192.124,414.552,230.922,417.083Z" transform="translate(69.796 40.714)" fill="#616161"/>
    <path id="Trazado_1564" data-name="Trazado 1564" d="M181.767,426.364c8.051,0,19.626-8.819,24.2-15.31l-26.592-14.418-25.345,4.111S172.621,426.364,181.767,426.364Z" transform="translate(83.631 40.714)" fill="#616161" opacity="0.2" style="mix-blend-mode: multiply;isolation: isolate"/>
    <path id="Trazado_1565" data-name="Trazado 1565" d="M161.532,530.018s19.642-3.865,27.152,0C188.684,530.018,187.578,533.038,161.532,530.018Z" transform="translate(94.976 239.877)" fill="#263238"/>
    <g id="Grupo_1359" data-name="Grupo 1359" transform="translate(247.204 437.35)">
      <path id="Trazado_1566" data-name="Trazado 1566" d="M157.829,399.2l15.8-2.563,21.958,11.684s-6.2,7.616-19.833,4.485S157.829,399.2,157.829,399.2Z" transform="translate(-157.829 -396.637)" fill="#ffa329"/>
    </g>
    <path id="Trazado_1567" data-name="Trazado 1567" d="M135.128,530.018s19.644-3.865,27.154,0C162.282,530.018,161.174,533.038,135.128,530.018Z" transform="translate(55.036 239.877)" fill="#263238"/>
    <path id="Trazado_1568" data-name="Trazado 1568" d="M168.922,388.541s1.766,21.775-10.679,22.737l30.094,6.068s-2.97-2.3-.5-7.523S168.922,388.541,168.922,388.541Z" transform="translate(90.001 28.467)" fill="#ffa329"/>
    <path id="Trazado_1569" data-name="Trazado 1569" d="M180.916,434.425c7.128-.276,15.038-7.922,16.945-14.991l9.9-36.253-41.117-8.425-4.435,40.22C161.365,421.493,175.386,434.149,180.916,434.425Z" transform="translate(95.949 7.616)" fill="#ffb74d"/>
    <path id="Trazado_1570" data-name="Trazado 1570" d="M145.486,439.964s6.558,4.292,7.94,6.407,2.945,7.644,1.025,7.784-8.694-9.772-8.694-9.772Z" transform="translate(70.704 106.253)" fill="#9e9e9e"/>
    <path id="Trazado_1571" data-name="Trazado 1571" d="M192,399.708s-50.877,20.033-77.85,50.572l1.173,11.892,54.992,33.519,16.845-4.123-34.8-35.7,27.19-8.35Z" transform="translate(23.298 45.359)" fill="#616161"/>
    <path id="Trazado_1572" data-name="Trazado 1572" d="M243.884,512.244l0-.028-73.458-9.1,2.879-48.356,16.028-42.924L157,431.2l-16.046-3.756,20.295,24.189-13.214,8.206-30.042-19.75-3.847-8.159,1.173,11.893,31.642,19.285,18.978-11.656-13.583-13.935,22.828-7.01h0a156.261,156.261,0,0,0-4.457,18.762c-.234,1.628-3.214,26.371-3.214,26.371-1.809,15.837-3.565,32.064-3.565,32.064Z" transform="translate(23.298 63.708)" fill="#616161" opacity="0.2" style="mix-blend-mode: multiply;isolation: isolate"/>
    <path id="Trazado_1573" data-name="Trazado 1573" d="M162.14,405.613l7.179,1.553s2.194-21.436,12-19.767V379.68s-12.174-12.727-17.39-5.425S162.14,405.613,162.14,405.613Z" transform="translate(94.222 3.438)" fill="#47302a"/>
    <path id="Trazado_1574" data-name="Trazado 1574" d="M175.921,461.25l-24.661-34.5-25.11,15.423,35.442,18.29Z" transform="translate(41.454 86.272)" fill="#bdbdbd"/>
    <path id="Trazado_1575" data-name="Trazado 1575" d="M152.966,445.911s-3.814,7.03-6.606,6.035-.445-6.345-.445-6.345Z" transform="translate(69.956 114.782)" fill="#9e9e9e"/>
    <path id="Trazado_1576" data-name="Trazado 1576" d="M151.837,445.968s-5.983,8.37-8.531,6.917,2.435-8.38,2.435-8.38Z" transform="translate(66.311 113.124)" fill="#9e9e9e"/>
    <path id="Trazado_1577" data-name="Trazado 1577" d="M143.41,443.769s-4.538,6.455-2.352,7.671,8.993-4.749,8.993-4.749Z" transform="translate(63.106 112.009)" fill="#9e9e9e"/>
    <path id="Trazado_1578" data-name="Trazado 1578" d="M142.226,442.788s-4.674,6.053-2.885,7.362,7.623-4.349,7.623-4.349Z" transform="translate(60.792 110.525)" fill="#9e9e9e"/>
    <path id="Trazado_1579" data-name="Trazado 1579" d="M135.128,449.9V549s15.87-8.345,22.338,0l5.608-72.6,16.134,1.794L188.949,549s18.179-9.39,23.6,0l-2.47-94.308Z" transform="translate(55.036 121.282)" fill="#424242" opacity="0.2" style="mix-blend-mode: multiply;isolation: isolate"/>
    <rect id="Rectángulo_765" data-name="Rectángulo 765" width="7.557" height="291.317" transform="translate(153.615 537.375) rotate(-69.999)" fill="#263238"/>
    <rect id="Rectángulo_766" data-name="Rectángulo 766" width="2.884" height="291.317" transform="translate(154.68 534.448) rotate(-69.999)" fill="#37474f"/>
    <path id="Trazado_1580" data-name="Trazado 1580" d="M155.938,442.732s10.322,12.031,2.5,14.423c-5.963,1.822-18.106-4.543-18.506-7.515a13.473,13.473,0,0,1,1.053-8.01S150.3,435.51,155.938,442.732Z" transform="translate(62.064 105.111)" fill="#bdbdbd"/>
    <path id="Trazado_1581" data-name="Trazado 1581" d="M198.667,470.131s-.8-10.232-3.5-10-1.452,10.181-1.452,10.181a2.438,2.438,0,0,0,2.681,2.143C197.182,472.365,198.409,472.194,198.667,470.131Z" transform="translate(143.234 136.752)" fill="#9e9e9e"/>
    <path id="Trazado_1582" data-name="Trazado 1582" d="M196.684,470.621s-.035-10.262-2.739-10.234-2.209,10.048-2.209,10.048a2.439,2.439,0,0,0,2.515,2.337C195.036,472.739,196.272,472.661,196.684,470.621Z" transform="translate(140.612 137.146)" fill="#9e9e9e"/>
    <path id="Trazado_1583" data-name="Trazado 1583" d="M194.906,470.346s.9-10.224-1.789-10.443-3.123,9.8-3.123,9.8a2.439,2.439,0,0,0,2.292,2.558C193.07,472.3,194.306,472.338,194.906,470.346Z" transform="translate(138.03 136.409)" fill="#9e9e9e"/>
    <path id="Trazado_1584" data-name="Trazado 1584" d="M192.651,469.05s1.8-9.113-.606-9.571S188.292,468,188.292,468a2.208,2.208,0,0,0,1.817,2.523A2.04,2.04,0,0,0,192.651,469.05Z" transform="translate(135.435 135.748)" fill="#9e9e9e"/>
    <path id="Trazado_1585" data-name="Trazado 1585" d="M192.772,455.432s8.4,3.161,9.35,6.51,2.033,8.978-.171,9.081-4.792-7.463-4.792-7.463-6.224.912-7.264-2.988S192.772,455.432,192.772,455.432Z" transform="translate(137.614 129.651)" fill="#bdbdbd"/>
    <g id="Grupo_1360" data-name="Grupo 1360" transform="translate(251.292 401.794)">
      <path id="Trazado_1586" data-name="Trazado 1586" d="M159.456,390.62c0,4.493,3.744,8.133,6.546,8.133s3.6-3.641,3.6-8.133-2.269-8.134-5.071-8.134S159.456,386.127,159.456,390.62Z" transform="translate(-159.456 -382.486)" fill="#ffb74d"/>
      <path id="Trazado_1587" data-name="Trazado 1587" d="M160.428,388.263c0,2.329,1.94,4.216,3.392,4.216s1.867-1.887,1.867-4.216-1.178-4.219-2.631-4.219S160.428,385.933,160.428,388.263Z" transform="translate(-157.986 -380.129)" fill="#ffa329"/>
    </g>
    <path id="Trazado_1588" data-name="Trazado 1588" d="M172.79,387.944c-.093,1.578-.977,2.809-1.975,2.751s-1.731-1.384-1.638-2.962.977-2.809,1.975-2.751S172.883,386.366,172.79,387.944Z" transform="translate(106.528 23.079)" fill="#5e431f"/>
    <path id="Trazado_1589" data-name="Trazado 1589" d="M178.71,388.892c-.246,1.56-1.246,2.7-2.234,2.543s-1.588-1.548-1.339-3.108,1.246-2.7,2.234-2.545S178.956,387.332,178.71,388.892Z" transform="translate(115.471 24.271)" fill="#5e431f"/>
    <ellipse id="Elipse_103" data-name="Elipse 103" cx="5.181" cy="1.356" rx="5.181" ry="1.356" transform="translate(272.33 400.904)" fill="#47302a"/>
    <path id="Trazado_1590" data-name="Trazado 1590" d="M183.709,386.452c-.239.708-2.249.673-4.488-.08s-3.857-1.94-3.618-2.651,2.246-.673,4.485.08S183.948,385.743,183.709,386.452Z" transform="translate(116.226 20.405)" fill="#47302a"/>
    <path id="Trazado_1591" data-name="Trazado 1591" d="M178.571,391.114a7.119,7.119,0,0,1-7.226-1.46S171.2,398.9,178.571,391.114Z" transform="translate(109.818 30.151)" fill="#ffa329"/>
    <path id="Trazado_1592" data-name="Trazado 1592" d="M168.083,392.379s7.6,6.138,15.9,2.181C183.983,394.56,175.588,403.239,168.083,392.379Z" transform="translate(104.886 34.273)" fill="#c67030"/>
    <path id="Trazado_1593" data-name="Trazado 1593" d="M169.561,395.021a7.485,7.485,0,0,0,6.942,1.043S170.782,403.5,169.561,395.021Z" transform="translate(107.121 38.269)" fill="#ffa329"/>
    <path id="Trazado_1594" data-name="Trazado 1594" d="M171.232,469.019l21.619,19.531L208.4,475.9l-13.375,6.468-18.3-30.6,1.9-30.155c-4.339,10.621-8.139,20.832-9.661,27.338-.623,2.661-1.249,6.847-1.837,11.664Z" transform="translate(103.435 78.502)" fill="#616161" opacity="0.2" style="mix-blend-mode: multiply;isolation: isolate"/>
    <path id="Trazado_1595" data-name="Trazado 1595" d="M188.8,446.092c1.294-5.525,4.234-13.729,7.747-22.581L181.8,443.361s-26.36,2.4-27.735,5.548,23.772,7.739,23.772,7.739l7.141,20.514C185.978,465.829,187.39,452.1,188.8,446.092Z" transform="translate(83.598 81.365)" fill="#616161" opacity="0.1" style="mix-blend-mode: multiply;isolation: isolate"/>
    <path id="Trazado_1596" data-name="Trazado 1596" d="M176.275,389.136s10.611,6.561,22.918,3.849c0,0-32.519-34.841-34.826-17.109C165.812,379.424,176.275,389.136,176.275,389.136Z" transform="translate(99.265 1.7)" fill="#47302a"/>
    <path id="Trazado_1597" data-name="Trazado 1597" d="M164.545,375.619s2.771-14,34.378,1.143c0,0,4.694,2.38,3.965-2.925,0,0,15.747,14.591-3.965,20.848Z" transform="translate(99.534 0)" fill="#47302a"/>
    <path id="Trazado_1598" data-name="Trazado 1598" d="M179.132,380.887s1.756.972-.008,7.925c0,0,4.194-7.694,3-9.872S179.132,380.887,179.132,380.887Z" transform="translate(121.587 12.982)" fill="#47302a"/>
    <rect id="Rectángulo_767" data-name="Rectángulo 767" width="207.144" height="128.884" transform="translate(357.245 642.354)" fill="#263238"/>
    <path id="Trazado_1599" data-name="Trazado 1599" d="M368.711,469.516H241.68L201.623,491.4c80.526,5.53,127.691,3.689,207.145,0Z" transform="translate(155.621 150.956)" fill="#263238"/>
    <rect id="Rectángulo_768" data-name="Rectángulo 768" width="45.342" height="5.841" transform="translate(438.146 549.111)" fill="#263238"/>
    <rect id="Rectángulo_769" data-name="Rectángulo 769" width="45.342" height="134.582" transform="translate(438.146 623.372)" fill="#1e272b"/>
    <rect id="Rectángulo_770" data-name="Rectángulo 770" width="32.87" height="22.877" transform="translate(444.382 586.351)" fill="#263238"/>
    <path id="Trazado_1600" data-name="Trazado 1600" d="M311.881,443.043H238.363L221.5,510.322H328.738Zm-14.089,48.542H252.451V458.323h45.341Z" transform="translate(185.696 110.911)" fill="#263238"/>
    <rect id="Rectángulo_771" data-name="Rectángulo 771" width="72.185" height="4.186" transform="translate(424.724 503.589)" fill="#37474f"/>
    <rect id="Rectángulo_772" data-name="Rectángulo 772" width="17.733" height="17.803" transform="translate(451.95 498.874)" fill="#263238"/>
    <circle id="Elipse_104" data-name="Elipse 104" cx="5.424" cy="5.424" r="5.424" transform="translate(494.15 500.258)" fill="#263238"/>
    <circle id="Elipse_105" data-name="Elipse 105" cx="5.424" cy="5.424" r="5.424" transform="translate(416.124 500.258)" fill="#263238"/>
    <g id="Grupo_1361" data-name="Grupo 1361" transform="translate(427.413 581.188)">
      <circle id="Elipse_106" data-name="Elipse 106" cx="26.426" cy="26.426" r="26.426" transform="translate(0 50.825) rotate(-74.077)" fill="#78909c"/>
      <circle id="Elipse_107" data-name="Elipse 107" cx="16.087" cy="16.087" r="16.087" transform="translate(16.575 16.575)" fill="#546e7a"/>
      <path id="Trazado_1601" data-name="Trazado 1601" d="M264.14,475a13.478,13.478,0,1,1-13.478-13.478A13.479,13.479,0,0,1,264.14,475Z" transform="translate(-218 -442.332)" fill="#78909c"/>
      <path id="Trazado_1602" data-name="Trazado 1602" d="M250.7,469.943a5.086,5.086,0,1,1-5.086-5.086A5.085,5.085,0,0,1,250.7,469.943Z" transform="translate(-212.947 -437.28)" fill="#546e7a"/>
      <path id="Trazado_1603" data-name="Trazado 1603" d="M247.749,468.837a3.246,3.246,0,1,1-3.246-3.249A3.247,3.247,0,0,1,247.749,468.837Z" transform="translate(-211.84 -436.174)" fill="#78909c"/>
    </g>
    <g id="Grupo_1362" data-name="Grupo 1362" transform="translate(378.192 626.057)">
      <circle id="Elipse_108" data-name="Elipse 108" cx="26.426" cy="26.426" r="26.426" transform="matrix(0.322, -0.947, 0.947, 0.322, 0, 50.037)" fill="#78909c"/>
      <path id="Trazado_1604" data-name="Trazado 1604" d="M249.076,494.766a16.087,16.087,0,1,1-16.089-16.086A16.089,16.089,0,0,1,249.076,494.766Z" transform="translate(-199.46 -461.239)" fill="#546e7a"/>
      <path id="Trazado_1605" data-name="Trazado 1605" d="M244.895,493.2a13.478,13.478,0,1,1-13.478-13.478A13.476,13.476,0,0,1,244.895,493.2Z" transform="translate(-197.89 -459.669)" fill="#78909c"/>
      <path id="Trazado_1606" data-name="Trazado 1606" d="M231.449,488.142a5.084,5.084,0,1,1-5.086-5.083A5.085,5.085,0,0,1,231.449,488.142Z" transform="translate(-192.836 -454.615)" fill="#546e7a"/>
      <path id="Trazado_1607" data-name="Trazado 1607" d="M228.506,487.036a3.248,3.248,0,1,1-3.249-3.246A3.249,3.249,0,0,1,228.506,487.036Z" transform="translate(-191.731 -453.51)" fill="#78909c"/>
    </g>
    <g id="Grupo_1363" data-name="Grupo 1363" transform="translate(478.123 627.794)">
      <circle id="Elipse_109" data-name="Elipse 109" cx="26.426" cy="26.426" r="26.426" transform="translate(0 51.438) rotate(-76.717)" fill="#78909c"/>
      <path id="Trazado_1608" data-name="Trazado 1608" d="M288.153,494.766a16.086,16.086,0,1,1-16.086-16.086A16.087,16.087,0,0,1,288.153,494.766Z" transform="translate(-240.276 -462.977)" fill="#546e7a"/>
      <path id="Trazado_1609" data-name="Trazado 1609" d="M283.975,493.2A13.478,13.478,0,1,1,270.5,479.718,13.478,13.478,0,0,1,283.975,493.2Z" transform="translate(-238.706 -461.406)" fill="#78909c"/>
      <path id="Trazado_1610" data-name="Trazado 1610" d="M270.53,488.142a5.086,5.086,0,1,1-5.086-5.083A5.085,5.085,0,0,1,270.53,488.142Z" transform="translate(-233.654 -456.353)" fill="#546e7a"/>
      <path id="Trazado_1611" data-name="Trazado 1611" d="M267.584,487.036a3.246,3.246,0,1,1-3.246-3.246A3.247,3.247,0,0,1,267.584,487.036Z" transform="translate(-232.547 -455.247)" fill="#78909c"/>
    </g>
    <path id="Trazado_1612" data-name="Trazado 1612" d="M325.462,540.855h-5.008V512.487a6.689,6.689,0,0,0-6.681-6.681H225.327V500.8h88.446a11.7,11.7,0,0,1,11.689,11.689Z" transform="translate(191.477 198.275)" fill="#37474f"/>
    <rect id="Rectángulo_773" data-name="Rectángulo 773" width="12.1" height="11.061" transform="translate(421.548 695.735)" fill="#1e272b"/>
    <rect id="Rectángulo_774" data-name="Rectángulo 774" width="12.101" height="11.061" transform="translate(487.776 695.735)" fill="#1e272b"/>
    <rect id="Rectángulo_775" data-name="Rectángulo 775" width="34.123" height="11.061" transform="translate(497.372 739.129)" fill="#1e272b"/>
  </g>
</svg>
