<svg xmlns="http://www.w3.org/2000/svg" width="533.293" height="445.572" viewBox="0 0 533.293 445.572">
  <g id="Grupo_1371" data-name="Grupo 1371" transform="translate(-200.939 -910.429)">
    <path id="Trazado_358" data-name="Trazado 358" d="M380.7,100.994c-30.2-1.05-58.955-10.8-86.417-21.462S239.621,57.048,210.13,51.4c-18.938-3.635-40.619-4.148-55.894,6.009-14.7,9.8-19.446,26.664-22,42.327-1.922,11.79-3.051,24.191,2.212,35.225,3.658,7.661,10.143,14.1,14.631,21.462,15.616,25.53,4.577,57.014-12.341,81.942-7.932,11.692-17.146,22.862-23.272,35.3s-8.958,26.711-3.6,39.406c5.309,12.6,17.967,22.04,31.68,28.694,27.849,13.5,60.653,17.37,92.664,19.558,70.838,4.848,142.05,2.748,213.075.649,26.286-.779,52.684-1.568,78.541-5.631,14.361-2.258,29.184-5.841,39.607-14.463,13.236-10.978,16.516-29.571,7.647-43.334-14.874-23.09-55.987-28.829-66.4-53.608-5.72-13.638.154-28.834,8.473-41.482,17.841-27.14,47.743-50.944,49.316-81.966,1.083-21.3-13.292-42.639-35.519-52.722-23.3-10.568-55.605-9.238-72.784,8.254C438.465,94.989,407.364,101.918,380.7,100.994Z" transform="translate(185.21 836.973) rotate(14)" fill="#7dc349" opacity="0.1"/>
    <g id="Grupo_1341" data-name="Grupo 1341" transform="translate(-322.747 485.289)">
      <g id="Grupo_1334" data-name="Grupo 1334" transform="translate(543.678 639.729)">
        <rect id="Rectángulo_710" data-name="Rectángulo 710" width="21.264" height="14.403" transform="translate(433.066 41.743)" fill="#1e272b"/>
        <rect id="Rectángulo_711" data-name="Rectángulo 711" width="14.603" height="4.88" transform="translate(436.397 44.065)" fill="#263238"/>
        <rect id="Rectángulo_712" data-name="Rectángulo 712" width="247.484" height="113.238" transform="translate(125.889 11.733)" fill="#263238"/>
        <rect id="Rectángulo_713" data-name="Rectángulo 713" width="132.084" height="157.816" transform="translate(1.492 11.272)" fill="#ffa000"/>
        <rect id="Rectángulo_714" data-name="Rectángulo 714" width="15.78" height="4.512" transform="translate(100.259 28.665)" fill="#263238"/>
        <ellipse id="Elipse_94" data-name="Elipse 94" cx="10.184" cy="2.405" rx="10.184" ry="2.405" transform="translate(98.028 25.587)" fill="#f4511e"/>
        <rect id="Rectángulo_715" data-name="Rectángulo 715" width="424.605" height="10.76" transform="translate(0 179.592)" fill="#263238"/>
        <rect id="Rectángulo_716" data-name="Rectángulo 716" width="124.042" height="10.76" transform="translate(6.459 169.088)" fill="#263238"/>
        <path id="Trazado_1377" data-name="Trazado 1377" d="M901.4,632.078H604.341v34.329h-3.075v37.916h89.487V689.941a18.408,18.408,0,0,1,18.409-18.409H801.9a18.406,18.406,0,0,1,18.407,18.409v14.382h48.428V689.941a18.407,18.407,0,0,1,18.407-18.409H901.4Z" transform="translate(-478.451 -524.476)" fill="#263238"/>
        <g id="Grupo_1331" data-name="Grupo 1331" transform="translate(133.576 147.055)">
          <path id="Trazado_1378" data-name="Trazado 1378" d="M685.038,668.987a18.408,18.408,0,0,1,18.409-18.409H606.312v32.791h78.726Z" transform="translate(-606.312 -650.578)" fill="#1e272b"/>
          <path id="Trazado_1379" data-name="Trazado 1379" d="M713.751,668.987v14.382h48.428V668.987a18.407,18.407,0,0,1,18.407-18.409H695.344A18.406,18.406,0,0,1,713.751,668.987Z" transform="translate(-505.472 -650.578)" fill="#1e272b"/>
        </g>
        <rect id="Rectángulo_717" data-name="Rectángulo 717" width="86.734" height="17.421" transform="translate(46.841 151.667)" fill="#ffb300"/>
        <rect id="Rectángulo_718" data-name="Rectángulo 718" width="86.734" height="116.825" transform="translate(46.841 38.429)" fill="#ffca28"/>
        <rect id="Rectángulo_719" data-name="Rectángulo 719" width="46.439" height="75.321" transform="translate(0.543 93.767)" fill="#ffca28"/>
        <path id="Trazado_1380" data-name="Trazado 1380" d="M590.371,638.925H543.932l10.56-25.107h35.879Z" transform="translate(-543.389 -545.158)" fill="#ffb300"/>
        <path id="Trazado_1381" data-name="Trazado 1381" d="M579.8,606.414H569.552l.922-12.3h8.4Z" transform="translate(-514.372 -567.473)" fill="#263238"/>
        <path id="Trazado_1382" data-name="Trazado 1382" d="M587.182,606.414H576.934l.922-12.3h8.4Z" transform="translate(-506.01 -567.473)" fill="#263238"/>
        <rect id="Rectángulo_720" data-name="Rectángulo 720" width="35.527" height="6.149" transform="translate(90.362 32.792)" fill="#ffb300"/>
        <rect id="Rectángulo_721" data-name="Rectángulo 721" width="15.78" height="2.686" transform="translate(100.259 28.665)" fill="#f4511e"/>
        <path id="Trazado_1383" data-name="Trazado 1383" d="M569.808,603.487V703.915H639.08V603.487Zm66.7,97.866H572.376V606.048h64.137Z" transform="translate(-514.082 -556.859)" fill="#ffa000"/>
        <path id="Trazado_1384" data-name="Trazado 1384" d="M545.71,627.633v66.611h38.856V627.633Zm36.5,64.111H548.067V630.13h34.141Z" transform="translate(-541.376 -529.511)" fill="#ffa000"/>
        <rect id="Rectángulo_722" data-name="Rectángulo 722" width="3.587" height="24.627" transform="translate(133.575 25.587)" fill="#263238"/>
        <rect id="Rectángulo_723" data-name="Rectángulo 723" width="4.483" height="10.216" transform="translate(178.73 31.527)" fill="#1e272b"/>
        <rect id="Rectángulo_724" data-name="Rectángulo 724" width="40.991" height="41.504" transform="translate(137.162 15.884)" fill="#78909c"/>
        <g id="Grupo_1332" data-name="Grupo 1332" transform="translate(137.585 2.212)" opacity="0.3">
          <rect id="Rectángulo_725" data-name="Rectángulo 725" width="50.65" height="33.477" fill="#00bcd4"/>
        </g>
        <path id="Trazado_1385" data-name="Trazado 1385" d="M607.153,581.623v37.9h55.082v-37.9Zm52.866,35.687h-50.65V583.834h50.65Z" transform="translate(-471.784 -581.623)" fill="#0277bd" opacity="0.5"/>
        <rect id="Rectángulo_726" data-name="Rectángulo 726" width="291.029" height="7.173" transform="translate(133.575 104.014)" fill="#546e7a"/>
        <rect id="Rectángulo_727" data-name="Rectángulo 727" width="291.029" height="7.174" transform="translate(133.575 127.84)" fill="#1e272b"/>
        <circle id="Elipse_95" data-name="Elipse 95" cx="24.338" cy="24.338" r="24.338" transform="translate(168.93 124.51)" fill="#37474f"/>
        <circle id="Elipse_96" data-name="Elipse 96" cx="17.421" cy="17.421" r="17.421" transform="translate(175.847 131.427)" fill="#263238"/>
        <path id="Trazado_1386" data-name="Trazado 1386" d="M648,656.17a8.945,8.945,0,1,1-8.946-8.946A8.945,8.945,0,0,1,648,656.17Z" transform="translate(-445.784 -507.322)" fill="#1e272b"/>
        <circle id="Elipse_97" data-name="Elipse 97" cx="5.894" cy="5.894" r="5.894" transform="translate(167.648 156.789)" fill="#263238"/>
        <rect id="Rectángulo_728" data-name="Rectángulo 728" width="36.508" height="9.928" transform="translate(235.476 94.087)" fill="#78909c"/>
        <rect id="Rectángulo_729" data-name="Rectángulo 729" width="32.281" height="38.942" transform="translate(237.59 65.073)" fill="#78909c"/>
        <rect id="Rectángulo_730" data-name="Rectángulo 730" width="32.281" height="5.636" transform="translate(237.59 60.461)" fill="#37474f"/>
        <rect id="Rectángulo_731" data-name="Rectángulo 731" width="32.281" height="8.736" transform="translate(237.59 85.351)" fill="#37474f"/>
        <rect id="Rectángulo_732" data-name="Rectángulo 732" width="32.281" height="7.317" transform="translate(237.59 44.513)" fill="#37474f"/>
        <rect id="Rectángulo_733" data-name="Rectángulo 733" width="13.066" height="8.631" transform="translate(247.197 51.831)" fill="#1e272b"/>
        <path id="Trazado_1387" data-name="Trazado 1387" d="M672.654,604.787a6.43,6.43,0,0,0-6.43-6.43h-.2a6.43,6.43,0,0,0-6.43,6.43v2.2h13.064Z" transform="translate(-412.392 -562.67)" fill="#1e272b"/>
        <rect id="Rectángulo_734" data-name="Rectángulo 734" width="38.429" height="9.735" transform="translate(263.261 75.692)" fill="#78909c"/>
        <rect id="Rectángulo_735" data-name="Rectángulo 735" width="7.378" height="4.074" transform="translate(301.69 78.523)" fill="#1e272b"/>
        <rect id="Rectángulo_736" data-name="Rectángulo 736" width="9.428" height="4.074" transform="translate(317.715 78.523)" fill="#1e272b"/>
        <rect id="Rectángulo_737" data-name="Rectángulo 737" width="9.069" height="15.218" transform="translate(305.379 72.951)" fill="#78909c"/>
        <rect id="Rectángulo_738" data-name="Rectángulo 738" width="3.267" height="9.735" transform="translate(314.448 75.692)" fill="#37474f"/>
        <path id="Trazado_1388" data-name="Trazado 1388" d="M668.439,600.688c0,2.736-1.691,4.952-3.779,4.952s-3.779-2.216-3.779-4.952,1.691-4.95,3.779-4.95S668.439,597.956,668.439,600.688Z" transform="translate(-410.93 -565.636)" fill="#1e272b"/>
        <path id="Trazado_1389" data-name="Trazado 1389" d="M694.167,603.1,663.1,600.79V597.7l31.064-2.306Z" transform="translate(-408.412 -566.024)" fill="#1e272b"/>
        <path id="Trazado_1390" data-name="Trazado 1390" d="M754.863,601.29,723.8,598.984V595.9l31.063-2.306Z" transform="translate(-339.666 -568.068)" fill="#1e272b"/>
        <path id="Trazado_1391" data-name="Trazado 1391" d="M664.83,620.492a2.049,2.049,0,1,1-2.049-2.049A2.049,2.049,0,0,1,664.83,620.492Z" transform="translate(-411.1 -539.92)" fill="#37474f"/>
        <circle id="Elipse_98" data-name="Elipse 98" cx="3.907" cy="3.907" r="3.907" transform="translate(239.909 68.826)" fill="#1e272b"/>
        <path id="Trazado_1392" data-name="Trazado 1392" d="M674.5,620.492a2.05,2.05,0,1,1-2.052-2.049A2.051,2.051,0,0,1,674.5,620.492Z" transform="translate(-400.147 -539.92)" fill="#37474f"/>
        <path id="Trazado_1393" data-name="Trazado 1393" d="M684.171,620.492a2.049,2.049,0,1,1-2.049-2.049A2.049,2.049,0,0,1,684.171,620.492Z" transform="translate(-389.194 -539.92)" fill="#37474f"/>
        <rect id="Rectángulo_739" data-name="Rectángulo 739" width="35.347" height="35.867" transform="translate(389.257 57.387)" fill="#ffb300"/>
        <path id="Trazado_1394" data-name="Trazado 1394" d="M708.869,612.7h10.248V601.685H708.869l-7.174,5.38Z" transform="translate(-364.702 -558.901)" fill="#78909c"/>
        <rect id="Rectángulo_740" data-name="Rectángulo 740" width="82.61" height="23.826" transform="translate(354.415 36.379)" fill="#ffca28"/>
        <rect id="Rectángulo_741" data-name="Rectángulo 741" width="46.62" height="13.835" transform="translate(377.984 90.18)" fill="#ffca28"/>
        <rect id="Rectángulo_742" data-name="Rectángulo 742" width="51.231" height="4.099" transform="translate(373.373 99.915)" fill="#ffca28"/>
        <rect id="Rectángulo_743" data-name="Rectángulo 743" width="23.733" height="24.082" transform="translate(395.064 63.28)" fill="#ffa000"/>
        <path id="Trazado_1395" data-name="Trazado 1395" d="M731.644,604.531H721.4v-6.084a4.93,4.93,0,0,1,4.931-4.931h.386a4.93,4.93,0,0,1,4.931,4.931Z" transform="translate(-342.388 -568.153)" fill="#1e272b"/>
        <path id="Trazado_1396" data-name="Trazado 1396" d="M745.144,629.7H731.378v-6.084c0-2.723,2.966-4.933,6.626-4.933h.516c3.657,0,6.624,2.209,6.624,4.933Z" transform="translate(-331.083 -539.648)" fill="#1e272b"/>
        <rect id="Rectángulo_744" data-name="Rectángulo 744" width="10.76" height="64.676" transform="translate(453.869 15.884)" fill="#1e272b"/>
        <path id="Trazado_1397" data-name="Trazado 1397" d="M771.287,620.611c4.408.646,17.933,0,17.933,0,2.981-4.487,1.887-6.882,0-8.831,0,0-13.525-.646-17.933,0-2.7.4-10.247,2.188-10.247,2.188v4.455S768.587,620.216,771.287,620.611Z" transform="translate(-297.487 -547.792)" fill="#1e272b"/>
        <rect id="Rectángulo_745" data-name="Rectángulo 745" width="6.558" height="48.132" transform="translate(455.509 17.965)" fill="#263238"/>
        <rect id="Rectángulo_746" data-name="Rectángulo 746" width="65.329" height="11.272" transform="translate(227.598 99.915)" fill="#37474f"/>
        <path id="Trazado_1398" data-name="Trazado 1398" d="M680.383,642.269a12.835,12.835,0,1,1-12.834-12.834A12.835,12.835,0,0,1,680.383,642.269Z" transform="translate(-417.917 -527.47)" fill="#78909c"/>
        <path id="Trazado_1399" data-name="Trazado 1399" d="M668.91,638.289a5.342,5.342,0,1,1-5.342-5.34A5.342,5.342,0,0,1,668.91,638.289Z" transform="translate(-413.937 -523.49)" fill="#546e7a"/>
        <rect id="Rectángulo_747" data-name="Rectángulo 747" width="4.483" height="36.251" transform="translate(232.835 107.626) rotate(-59.821)" fill="#90a4ae"/>
        <circle id="Elipse_99" data-name="Elipse 99" cx="4.899" cy="4.899" r="4.899" transform="translate(262.467 120.412)" fill="#90a4ae"/>
        <path id="Trazado_1400" data-name="Trazado 1400" d="M659.359,632.952a4.9,4.9,0,1,1-4.9-4.9A4.9,4.9,0,0,1,659.359,632.952Z" transform="translate(-423.75 -529.035)" fill="#90a4ae"/>
        <path id="Trazado_1401" data-name="Trazado 1401" d="M664.3,636.691a2.331,2.331,0,1,1-2.331-2.331A2.332,2.332,0,0,1,664.3,636.691Z" transform="translate(-412.338 -521.892)" fill="#263238"/>
        <g id="Grupo_1333" data-name="Grupo 1333" transform="translate(317.53 59.014)">
          <circle id="Elipse_100" data-name="Elipse 100" cx="4.899" cy="4.899" r="4.899" transform="translate(0 28.348)" fill="#546e7a"/>
          <path id="Trazado_1402" data-name="Trazado 1402" d="M699.875,612.567A3.272,3.272,0,1,1,696.6,609.3,3.273,3.273,0,0,1,699.875,612.567Z" transform="translate(-691.704 -609.295)" fill="#546e7a"/>
          <rect id="Rectángulo_748" data-name="Rectángulo 748" width="4.868" height="26.9" transform="translate(2.555 4.266)" fill="#546e7a"/>
          <path id="Trazado_1403" data-name="Trazado 1403" d="M695.344,612.073s6.4-5.187,14.666,0C710.01,612.073,702,617.07,695.344,612.073Z" transform="translate(-689.426 -608.759)" fill="#546e7a"/>
        </g>
      </g>
      <ellipse id="Elipse_101" data-name="Elipse 101" cx="102.85" cy="2.464" rx="102.85" ry="2.464" transform="translate(715.182 865.783)" fill="#b0bec5"/>
      <path id="Trazado_1404" data-name="Trazado 1404" d="M667.609,607.378h63.775l-.815,173.437H718.14L707.425,634.647h-13.7l-7.551,146.168H674.562Z" transform="translate(140.368 87.276)" fill="#424242"/>
      <path id="Trazado_1405" data-name="Trazado 1405" d="M667.609,607.378h63.775l-.815,173.437H718.14L707.425,634.647h-13.7l-7.551,146.168H674.562Z" transform="translate(140.368 87.276)" fill="#424242"/>
      <path id="Trazado_1406" data-name="Trazado 1406" d="M690.548,697.443l3.182-62.8h13.694l4.568,62.3c5.75-4.822,16.831-2.079,18.978-1.495l.414-88.073H667.609l3.61,90.065C678.8,691.888,690.548,697.443,690.548,697.443Z" transform="translate(140.368 87.277)" fill="#424242" opacity="0.2" style="mix-blend-mode: multiply;isolation: isolate"/>
      <path id="Trazado_1407" data-name="Trazado 1407" d="M711.244,546.032c-.337-5.72-.61-13.367-13.056-15.372-12.83-2.064-37.773,5.692-25.967,13.129a107.718,107.718,0,0,0,2.38,20.192l29.641,9.644S712.921,565.686,711.244,546.032Z" transform="translate(142.094 0)" fill="#5d4037"/>
      <path id="Trazado_1408" data-name="Trazado 1408" d="M734.685,559.331,665.1,564.1l4.5,98.127h65.085Z" transform="translate(137.527 32.857)" fill="#00695c"/>
      <path id="Trazado_1409" data-name="Trazado 1409" d="M734.684,562.654,699.893,556.4,665.1,567.419S721.752,568.557,734.684,562.654Z" transform="translate(137.527 29.534)" fill="#00695c"/>
      <path id="Trazado_1410" data-name="Trazado 1410" d="M694.1,556.4l-23.877,7.562a47.665,47.665,0,0,0,24.854,21.646s17.663-11.958,22.883-24.918Z" transform="translate(143.324 29.534)" fill="#0097a7" opacity="0.3" style="mix-blend-mode: multiply;isolation: isolate"/>
      <path id="Trazado_1411" data-name="Trazado 1411" d="M691.363,556.4l-18.731,5.933a52.481,52.481,0,0,0,17.1,13.427s13.954-7.628,19.691-16.112Z" transform="translate(146.057 29.534)" fill="#ffa329"/>
      <path id="Trazado_1412" data-name="Trazado 1412" d="M699.526,566.694s-3.173.365-2.819-17.52l-20,.885s3.6,16.882-.894,18.3C675.811,568.363,693.207,573.821,699.526,566.694Z" transform="translate(149.658 21.353)" fill="#ffa329"/>
      <path id="Trazado_1413" data-name="Trazado 1413" d="M686.5,580.314c-9.019.486-13.939-16.788-14.086-20.138l-1.194-22.256,31.271-1.284-.616,29.835C701.284,573.526,693.952,579.385,686.5,580.314Z" transform="translate(144.46 7.152)" fill="#ffb74d"/>
      <path id="Trazado_1414" data-name="Trazado 1414" d="M695.842,538.607c.2,3.837-4.331,7.2-10.126,7.5S670.06,543,669.86,539.159s9.33-6.645,15.125-6.95S695.639,534.768,695.842,538.607Z" transform="translate(142.914 2.113)" fill="#5d4037"/>
      <path id="Trazado_1415" data-name="Trazado 1415" d="M680.812,540.519s4.711-4.4,6.952.6c1.433,3.191.975,17.663.975,17.663l4.751-1.538.636-17.967-5.474-3.329S678.971,531.971,680.812,540.519Z" transform="translate(155.058 5.325)" fill="#5d4037"/>
      <path id="Trazado_1416" data-name="Trazado 1416" d="M675.05,537.779s-3.5-1.5-2.952,8.774l-1.241-9.326,3.785-.591Z" transform="translate(144.047 7.152)" fill="#5d4037"/>
      <path id="Trazado_1417" data-name="Trazado 1417" d="M682.73,546.629c-.079,1.339-.83,2.384-1.676,2.335s-1.469-1.177-1.391-2.514.83-2.384,1.676-2.335S682.809,545.29,682.73,546.629Z" transform="translate(154.014 15.621)" fill="#5e431f"/>
      <path id="Trazado_1418" data-name="Trazado 1418" d="M676.181,546.614c.109,1.337-.491,2.478-1.335,2.544s-1.619-.96-1.725-2.3.49-2.476,1.335-2.544S676.075,545.276,676.181,546.614Z" transform="translate(146.596 15.848)" fill="#5e431f"/>
      <ellipse id="Elipse_102" data-name="Elipse 102" cx="1.151" cy="4.398" rx="1.151" ry="4.398" transform="matrix(0.05, -0.999, 0.999, 0.05, 831.439, 555.601)" fill="#5d4037"/>
      <path id="Trazado_1419" data-name="Trazado 1419" d="M679.681,542.09c.1.627-1.619,1.422-3.839,1.774s-4.1.128-4.2-.5,1.619-1.422,3.837-1.774S679.581,541.463,679.681,542.09Z" transform="translate(144.935 12.575)" fill="#5d4037"/>
      <path id="Trazado_1420" data-name="Trazado 1420" d="M675.612,548.794s3.263,1.416,5.918-.354C681.53,548.44,678.623,556.761,675.612,548.794Z" transform="translate(149.433 20.522)" fill="#ffa329"/>
      <path id="Trazado_1421" data-name="Trazado 1421" d="M674.305,551.793s6.223,3.721,14.252-.828C688.557,550.965,681.432,560.779,674.305,551.793Z" transform="translate(147.952 23.382)" fill="#c67030"/>
      <path id="Trazado_1422" data-name="Trazado 1422" d="M676.5,554.375a6.17,6.17,0,0,0,4.978-.441S679.064,559.462,676.5,554.375Z" transform="translate(150.442 26.744)" fill="#ffa329"/>
      <rect id="Rectángulo_749" data-name="Rectángulo 749" width="32.479" height="1.771" transform="translate(812.772 556.347) rotate(-1.812)" fill="#263238"/>
      <g id="Grupo_1337" data-name="Grupo 1337" transform="translate(813.505 557.119)">
        <g id="Grupo_1335" data-name="Grupo 1335" transform="translate(4.193 0.456)" opacity="0.3" style="mix-blend-mode: multiply;isolation: isolate">
          <path id="Trazado_1423" data-name="Trazado 1423" d="M672.167,552.975c.094.009.175.032.275.034,7.123.141,7.739-4.122,10.008-4.291,2.135-.16,3.195,4.459,10.426,3.945-2.858-.392-9.008-2.122-8.5-9.563l-4.182.132C680.408,545.172,680.642,552.457,672.167,552.975Z" transform="translate(-672.167 -543.101)" fill="#00bcd4"/>
        </g>
        <g id="Grupo_1336" data-name="Grupo 1336" opacity="0.6">
          <path id="Trazado_1424" data-name="Trazado 1424" d="M670.4,543.857l30.622-.97s2.442,8.818-4.464,9.857c-8.562,1.288-9.614-3.954-11.885-3.783s-2.885,4.432-10.008,4.291C668.789,553.134,670.4,543.857,670.4,543.857Z" transform="translate(-670.201 -542.887)" fill="#00bcd4"/>
        </g>
      </g>
      <path id="Trazado_1425" data-name="Trazado 1425" d="M685.821,542.043l-1.4.629.132,1.184.36-.013a14.1,14.1,0,0,1,.414,3.594l7.588,2.493.81-2.619Z" transform="translate(159.413 13.276)" fill="#263238"/>
      <g id="Grupo_1338" data-name="Grupo 1338" transform="translate(844.927 559.258)">
        <path id="Trazado_1426" data-name="Trazado 1426" d="M692.63,550.265c0,3.521-2.841,6.374-4.965,6.374s-2.73-2.853-2.73-6.374,1.723-6.375,3.847-6.375S692.63,546.744,692.63,550.265Z" transform="translate(-684.935 -543.89)" fill="#ffb74d"/>
        <path id="Trazado_1427" data-name="Trazado 1427" d="M689.792,548.635c0,1.825-1.472,3.306-2.574,3.306s-1.414-1.48-1.414-3.306.891-3.306,1.994-3.306S689.792,546.809,689.792,548.635Z" transform="translate(-683.951 -542.26)" fill="#ffa329"/>
      </g>
      <path id="Trazado_1428" data-name="Trazado 1428" d="M692.937,561.565l-13.031,49.421L646.9,584.324l-6.375,6.021,37.539,52.985h10.27l15.48-29.04Z" transform="translate(109.691 35.387)" fill="#00695c"/>
      <path id="Trazado_1429" data-name="Trazado 1429" d="M701.582,559.331s17.534,12.158,19.307,116.985l-9.654,1.416s-15.845-63.77-16.907-65.87Z" transform="translate(170.63 32.857)" fill="#00695c"/>
      <path id="Trazado_1430" data-name="Trazado 1430" d="M657.944,607.93l13.08-18.46L647.651,571.01l-7.791,8.027Z" transform="translate(108.938 46.086)" fill="#bdbdbd"/>
      <path id="Trazado_1431" data-name="Trazado 1431" d="M698.645,607.305,716,600.458v32.057l-9.444-.656Z" transform="translate(175.52 79.439)" fill="#bdbdbd"/>
      <path id="Trazado_1432" data-name="Trazado 1432" d="M655.33,573.236a12.951,12.951,0,0,0-8.383-2.638c-2.743.245-5.628-1.68-8.08-1.544a5.949,5.949,0,0,0-5.376,3.472c-2.832,7.025,9.8,8.972,14.048,8.735S655.33,573.236,655.33,573.236Z" transform="translate(101.259 43.861)" fill="#bdbdbd"/>
      <path id="Trazado_1433" data-name="Trazado 1433" d="M703.822,615.218s-2.8,4.756-2.779,6.844c.017,1.717.456,6.571,1.864,6.833s1.67-5.167,1.67-5.167S711.826,616.525,703.822,615.218Z" transform="translate(178.236 96.156)" fill="#bdbdbd"/>
      <path id="Trazado_1434" data-name="Trazado 1434" d="M645.159,571.074s-5.481-5.7-6.895-4.545,2.237,5.182,2.237,5.182Z" transform="translate(106.762 40.835)" fill="#bdbdbd"/>
      <path id="Trazado_1435" data-name="Trazado 1435" d="M638.79,578.07s-11.162-7.206-9.326-9c2.685-2.627,11.864,6.242,11.864,6.242Z" transform="translate(96.934 43.335)" fill="#bdbdbd"/>
      <path id="Trazado_1436" data-name="Trazado 1436" d="M638.79,576.314s-11.162-7.206-9.326-9c2.685-2.627,11.864,6.242,11.864,6.242Z" transform="translate(96.934 41.346)" fill="#bdbdbd"/>
      <path id="Trazado_1437" data-name="Trazado 1437" d="M639.347,576s-10.373-8.3-8.364-9.9c2.939-2.34,11.169,7.415,11.169,7.415Z" transform="translate(98.592 40.111)" fill="#bdbdbd"/>
      <path id="Trazado_1438" data-name="Trazado 1438" d="M688.556,689.477s-16.673-3.28-23.047,0C665.509,689.477,666.45,692.041,688.556,689.477Z" transform="translate(137.99 178.613)" fill="#263238"/>
      <path id="Trazado_1439" data-name="Trazado 1439" d="M709.37,689.477s-16.671-3.28-23.045,0C686.325,689.477,687.263,692.041,709.37,689.477Z" transform="translate(161.566 178.613)" fill="#263238"/>
      <path id="Trazado_1440" data-name="Trazado 1440" d="M667.21,643.351H732.3V620.406l3.533,13.987,14.794-5.837-.318-5.58h-10.94l-7.24-46.983-7.083,61.621Z" transform="translate(139.916 51.728)" fill="#0097a7" opacity="0.3" style="mix-blend-mode: multiply;isolation: isolate"/>
      <path id="Trazado_1441" data-name="Trazado 1441" d="M707.214,622.136s-4.293,8.351-2.007,8.36c1.616.006,4.282-4.988,5.135-8.861A8.246,8.246,0,0,1,707.214,622.136Z" transform="translate(182.193 103.424)" fill="#9e9e9e"/>
      <path id="Trazado_1442" data-name="Trazado 1442" d="M686.277,608.4l-1.318-28.734-8.617,30.649h-7.555l-15.346-16.763,7.083-10.85-1.368-1.1L649.13,595.748l19.186,27.08h10.27Z" transform="translate(119.438 55.889)" fill="#0097a7" opacity="0.3" style="mix-blend-mode: multiply;isolation: isolate"/>
      <path id="Trazado_1443" data-name="Trazado 1443" d="M648.609,573.851s-3.745-4.372-4.905-5.479l-4.223,1.077s1.256,1.909-.642,1.843Z" transform="translate(107.782 43.097)" fill="#bdbdbd"/>
      <path id="Trazado_1444" data-name="Trazado 1444" d="M666.041,577.361l56.647-2.578s2.512,19.729,10.471,24.687l.461,45.25,1.953,50.8-68.451,1.216,1.412-52.013S666.89,586.25,666.041,577.361Z" transform="translate(138.592 50.359)" fill="#cfd8dc"/>
      <g id="Grupo_1339" data-name="Grupo 1339" transform="translate(815.661 648.302)" opacity="0.4" style="mix-blend-mode: multiply;isolation: isolate">
        <path id="Trazado_1445" data-name="Trazado 1445" d="M671.212,588.731s23.794,7.652,40.844-3.088v20l-40.072,1.3Z" transform="translate(-671.212 -585.643)" fill="#cfd8dc"/>
      </g>
      <path id="Trazado_1446" data-name="Trazado 1446" d="M695.681,593.4s2.99-28.4,9.819-33.561l-7.68-1.382s-5.873,9.17-9.277,35.278C688.543,593.739,695.037,597.081,695.681,593.4Z" transform="translate(164.079 31.872)" fill="#cfd8dc"/>
      <path id="Trazado_1447" data-name="Trazado 1447" d="M678.408,594.863s-4.848-27.046-5.775-35.073l-6.592,2.444s1.331,15.152,4.679,33.74Z" transform="translate(138.592 33.377)" fill="#cfd8dc"/>
      <g id="Grupo_1340" data-name="Grupo 1340" transform="translate(804.633 627.72)" opacity="0.4" style="mix-blend-mode: multiply;isolation: isolate">
        <path id="Trazado_1448" data-name="Trazado 1448" d="M666.041,575.992l8.914,62.094s24.86.994,24.86,2.819c0,4.658-24.214,13.451-24.214,13.451l-1.425,30.87,61.4,8.923-68.451,1.216,1.412-52.013Z" transform="translate(-666.041 -575.992)" fill="#cfd8dc"/>
      </g>
      <path id="Trazado_1449" data-name="Trazado 1449" d="M709.863,620.32s-.139,7.628-3.414,10.019c0,0-1.638.885,0-3.852Z" transform="translate(183.535 101.935)" fill="#9e9e9e"/>
      <path id="Trazado_1450" data-name="Trazado 1450" d="M666.647,716.931l1.442-53.126c-.017-.527-1.653-58.477-2.489-67.229l-.107-1.115,4.263-.194c-2.93-17.031-4.144-30.669-4.156-30.808l-.07-.808,8.631-3.2.156,1.348c.757,6.581,4.142,25.88,5.408,33.015l34-1.548c3.412-25.308,9.066-34.376,9.309-34.753l.382-.6,10.782,1.938.047,1.094-1.99.377c-4.854,3.666-8.085,21.542-9.256,31.522l1.245-.055.126.975c.023.192,2.542,19.285,9.979,23.917l.5.309.465,45.834,1.994,51.857Zm1.169-119.442c.862,11.64,2.342,64.009,2.406,66.316l-1.384,50.955,66.248-1.177-1.911-49.707-.452-44.717c-6.974-4.958-9.714-20.109-10.333-24.152l-1.787.081.132-1.237c.292-2.728,2.856-25.15,8.708-32.689l-4.96-.892c-1.288,2.427-5.912,12.346-8.763,34.156l-.117.887-37.649,1.715-.164-.921c-1.045-5.873-4.372-24.739-5.423-32.719l-4.566,1.693c.316,3.25,1.619,15.9,4.265,31.013l.211,1.192Z" transform="translate(137.971 31.246)" fill="#b0bec5"/>
      <path id="Trazado_1451" data-name="Trazado 1451" d="M672.382,614.185l-2.395-32.642,44.523-1.322v32.593Zm-.1-30.575,2.084,28.375,38.016-1.237V582.415Z" transform="translate(143.062 56.518)" fill="#b0bec5"/>
      <path id="Trazado_1452" data-name="Trazado 1452" d="M711.8,614.85a40.828,40.828,0,0,1,1.855,12.254c-.094,2.015-1.1,3.216-3.967,2.717-.531,4.1-2.683,7.825-3.851,8.262-3.583,1.344,3.188-11.5-2.425-14.276-.8-4.532-1.056-8.663-1.056-8.663Z" transform="translate(179.721 95.74)" fill="#bdbdbd"/>
    </g>
  </g>
</svg>
