<svg id="Logo" xmlns="http://www.w3.org/2000/svg" width="247.047" height="86.715" viewBox="0 0 247.047 86.715">
  <g id="Grupo_1367" data-name="Grupo 1367" transform="translate(-14.405 5.357)">
    <g id="Grupo_1366" data-name="Grupo 1366" transform="translate(144.212 6.459)">
      <path id="Trazado_1615" data-name="Trazado 1615" d="M841.581,47.176l-1.9,1.812a5.887,5.887,0,0,0-4.364-2.049,4.782,4.782,0,0,0-4.848,4.848,5.1,5.1,0,0,0,.621,2.536,4.446,4.446,0,0,0,1.755,1.739,5.1,5.1,0,0,0,2.522.631,5.192,5.192,0,0,0,2.162-.442,7.755,7.755,0,0,0,2.153-1.608l1.842,1.923a10.1,10.1,0,0,1-2.99,2.141,8.162,8.162,0,0,1-3.213.6,7.4,7.4,0,0,1-5.45-2.111,7.309,7.309,0,0,1-2.121-5.411,7.414,7.414,0,0,1,.965-3.794,7.184,7.184,0,0,1,2.767-2.669,7.793,7.793,0,0,1,3.877-1.01,8.245,8.245,0,0,1,6.223,2.866Z" transform="translate(-827.308 -44.31)"/>
      <path id="Trazado_1616" data-name="Trazado 1616" d="M944.634,76.709h-8.511a2.83,2.83,0,0,0,.985,1.79,3.09,3.09,0,0,0,2.044.665,3.526,3.526,0,0,0,2.552-1.039l2.233,1.048a5.269,5.269,0,0,1-2,1.752,6.247,6.247,0,0,1-2.767.567,5.469,5.469,0,0,1-4.048-1.567A5.333,5.333,0,0,1,933.56,76a5.51,5.51,0,0,1,1.558-4.013,5.232,5.232,0,0,1,3.906-1.6,5.424,5.424,0,0,1,4.057,1.6,5.768,5.768,0,0,1,1.563,4.217Zm-2.65-2.086a2.659,2.659,0,0,0-1.035-1.436,3,3,0,0,0-1.794-.554,3.174,3.174,0,0,0-1.944.621,3.48,3.48,0,0,0-.972,1.369Z" transform="translate(-917.696 -66.589)"/>
      <path id="Trazado_1617" data-name="Trazado 1617" d="M1019.98,70.663h2.271v1.329a2.839,2.839,0,0,1,.979-1.194,2.361,2.361,0,0,1,1.34-.408,2.481,2.481,0,0,1,1.077.271l-.825,2.281a1.837,1.837,0,0,0-.767-.233,1.212,1.212,0,0,0-1.033.757,6.929,6.929,0,0,0-.421,2.969l.01.515V81.22h-2.63V70.663Z" transform="translate(-991.519 -66.589)"/>
      <path id="Trazado_1618" data-name="Trazado 1618" d="M1075.18,72.8l-2.205,1.213a3.271,3.271,0,0,0-2.653-1.154,3.32,3.32,0,0,0-2.405.886,3.021,3.021,0,0,0-.918,2.272,2.918,2.918,0,0,0,.885,2.2,3.2,3.2,0,0,0,2.322.853,3.378,3.378,0,0,0,2.77-1.213l2.089,1.43a6.436,6.436,0,0,1-9.157.558,5.487,5.487,0,0,1,1.329-8.715,6.394,6.394,0,0,1,3.071-.738,6.239,6.239,0,0,1,2.825.625A5.383,5.383,0,0,1,1075.18,72.8Z" transform="translate(-1029.404 -66.589)"/>
      <path id="Trazado_1619" data-name="Trazado 1619" d="M1160.089,70.654h2.65V81.213h-2.65V80.1a5.19,5.19,0,0,1-1.557,1.063,4.348,4.348,0,0,1-1.692.325A4.7,4.7,0,0,1,1153.3,79.9a5.535,5.535,0,0,1-1.493-3.946,5.671,5.671,0,0,1,1.444-4.008,4.6,4.6,0,0,1,3.51-1.563,4.462,4.462,0,0,1,1.783.359,4.886,4.886,0,0,1,1.542,1.077Zm-2.785,2.173a2.676,2.676,0,0,0-2.041.869,3.133,3.133,0,0,0-.812,2.227,3.166,3.166,0,0,0,.827,2.252,2.679,2.679,0,0,0,2.036.883,2.725,2.725,0,0,0,2.07-.869,3.175,3.175,0,0,0,.822-2.275,3.088,3.088,0,0,0-.822-2.233A2.766,2.766,0,0,0,1157.3,72.827Z" transform="translate(-1104.133 -66.58)"/>
      <path id="Trazado_1620" data-name="Trazado 1620" d="M1246.755,72.155l-1.64,1.64a2.771,2.771,0,0,0-1.815-.99,1.135,1.135,0,0,0-.7.189.57.57,0,0,0-.252.471.58.58,0,0,0,.16.394,2.975,2.975,0,0,0,.791.49l.971.485a5.715,5.715,0,0,1,2.106,1.544,3.213,3.213,0,0,1-.461,4.192,3.954,3.954,0,0,1-2.771.942,4.4,4.4,0,0,1-3.688-1.8l1.631-1.775a3.752,3.752,0,0,0,1.092.877,2.417,2.417,0,0,0,1.111.335,1.325,1.325,0,0,0,.844-.252.73.73,0,0,0,.321-.583q0-.612-1.154-1.194l-.893-.446q-2.563-1.29-2.563-3.232a2.8,2.8,0,0,1,.966-2.14,3.508,3.508,0,0,1,2.471-.888,4.283,4.283,0,0,1,3.471,1.745Z" transform="translate(-1179.007 -66.606)"/>
      <path id="Trazado_1621" data-name="Trazado 1621" d="M1350.219,58.827l1.619,1.854-.736.669-.726.659,2.291,2.428h-3.294l-.942-.971a8.332,8.332,0,0,1-4.183,1.329,3.7,3.7,0,0,1-2.654-.961,3.246,3.246,0,0,1-1.015-2.465,4.27,4.27,0,0,1,.574-2.146,7.488,7.488,0,0,1,1.968-2.087,5.776,5.776,0,0,1-1.377-3.281,3.147,3.147,0,0,1,.913-2.087,3.747,3.747,0,0,1,5.148-.01,3.117,3.117,0,0,1,.9,2.057,3.184,3.184,0,0,1-.413,1.563,11.755,11.755,0,0,1-1.9,2.213q1.738,2.046,2.243,2.552Q1348.949,59.916,1350.219,58.827Zm-3.548,2.751a29.541,29.541,0,0,1-2.112-2.44q-1.436,1.194-1.436,2.087a1.021,1.021,0,0,0,.392.767,1.44,1.44,0,0,0,.994.35A4.569,4.569,0,0,0,1346.672,61.577Zm-1.617-5.9q1.078-.923,1.077-1.631a.8.8,0,0,0-.242-.6.889.889,0,0,0-.641-.233.889.889,0,0,0-.883.873A2.734,2.734,0,0,0,1345.055,55.681Z" transform="translate(-1265.388 -49.803)"/>
      <path id="Trazado_1622" data-name="Trazado 1622" d="M830.225,210.4h2.756l5.491,14.277h-2.823l-1.117-2.94h-5.826l-1.162,2.94H824.72Zm1.4,3.784-1.915,4.9h3.82Z" transform="translate(-824.72 -186.191)"/>
      <path id="Trazado_1623" data-name="Trazado 1623" d="M929.49,207.93h2.65v14.636h-2.65Z" transform="translate(-914.219 -184.081)"/>
      <path id="Trazado_1624" data-name="Trazado 1624" d="M969.129,234.294h2.65v10.559h-2.65v-1.117a5.191,5.191,0,0,1-1.557,1.063,4.349,4.349,0,0,1-1.692.325,4.7,4.7,0,0,1-3.538-1.587,5.541,5.541,0,0,1-1.493-3.946,5.67,5.67,0,0,1,1.445-4.008,4.6,4.6,0,0,1,3.51-1.563,4.462,4.462,0,0,1,1.783.359,4.884,4.884,0,0,1,1.542,1.077Zm-2.785,2.173a2.676,2.676,0,0,0-2.041.869,3.128,3.128,0,0,0-.812,2.227,3.165,3.165,0,0,0,.826,2.252,2.679,2.679,0,0,0,2.036.883,2.725,2.725,0,0,0,2.07-.869,3.175,3.175,0,0,0,.822-2.275,3.088,3.088,0,0,0-.822-2.233A2.768,2.768,0,0,0,966.344,236.467Z" transform="translate(-941.008 -206.368)"/>
      <path id="Trazado_1625" data-name="Trazado 1625" d="M1054.07,234.3h2.65v1.213a4.523,4.523,0,0,1,1.51-1.117,4.4,4.4,0,0,1,1.812-.369,3.364,3.364,0,0,1,1.787.485,3.522,3.522,0,0,1,1.283,1.417,4.283,4.283,0,0,1,1.55-1.417,4.227,4.227,0,0,1,2.006-.485,3.71,3.71,0,0,1,1.981.525,3.031,3.031,0,0,1,1.229,1.369,7.309,7.309,0,0,1,.375,2.746v6.192h-2.669V239.5a4.588,4.588,0,0,0-.446-2.431,1.527,1.527,0,0,0-1.34-.636,2.04,2.04,0,0,0-1.219.388,2.286,2.286,0,0,0-.8,1.073,6.667,6.667,0,0,0-.262,2.2v4.765h-2.669v-5.115a7.237,7.237,0,0,0-.208-2.052,1.852,1.852,0,0,0-.628-.946,1.65,1.65,0,0,0-1.012-.31,1.993,1.993,0,0,0-1.2.394,2.344,2.344,0,0,0-.808,1.1,6.813,6.813,0,0,0-.268,2.232v4.7h-2.65V234.3Z" transform="translate(-1020.64 -206.376)"/>
      <path id="Trazado_1626" data-name="Trazado 1626" d="M1185.018,207.93v5.242a4.972,4.972,0,0,1,1.554-1.077,4.476,4.476,0,0,1,1.786-.359,4.605,4.605,0,0,1,3.513,1.563,5.671,5.671,0,0,1,1.446,4.008,5.536,5.536,0,0,1-1.494,3.946,4.708,4.708,0,0,1-3.542,1.587,4.39,4.39,0,0,1-1.7-.325,5.2,5.2,0,0,1-1.562-1.063v1.117h-2.63V207.93Zm2.787,6.25a2.763,2.763,0,0,0-2.077.854,3.082,3.082,0,0,0-.825,2.233,3.168,3.168,0,0,0,.825,2.275,2.744,2.744,0,0,0,2.077.869,2.694,2.694,0,0,0,2.043-.883,3.161,3.161,0,0,0,.829-2.252,3.128,3.128,0,0,0-.815-2.227A2.707,2.707,0,0,0,1187.805,214.18Z" transform="translate(-1130.256 -184.081)"/>
      <path id="Trazado_1627" data-name="Trazado 1627" d="M1268.14,234.3h2.271v1.329a2.839,2.839,0,0,1,.98-1.194,2.36,2.36,0,0,1,1.339-.408,2.482,2.482,0,0,1,1.077.271l-.825,2.281a1.838,1.838,0,0,0-.767-.233,1.212,1.212,0,0,0-1.033.757,6.927,6.927,0,0,0-.421,2.969l.01.515v4.271h-2.63V234.3Z" transform="translate(-1203.507 -206.376)"/>
      <path id="Trazado_1628" data-name="Trazado 1628" d="M1320.959,234.294h2.65v10.559h-2.65v-1.117a5.189,5.189,0,0,1-1.557,1.063,4.349,4.349,0,0,1-1.692.325,4.7,4.7,0,0,1-3.538-1.587,5.535,5.535,0,0,1-1.492-3.946,5.671,5.671,0,0,1,1.444-4.008,4.6,4.6,0,0,1,3.51-1.563,4.462,4.462,0,0,1,1.783.359,4.884,4.884,0,0,1,1.542,1.077Zm-2.785,2.173a2.676,2.676,0,0,0-2.041.869,3.128,3.128,0,0,0-.812,2.227,3.165,3.165,0,0,0,.827,2.252,2.679,2.679,0,0,0,2.036.883,2.725,2.725,0,0,0,2.07-.869,3.174,3.174,0,0,0,.822-2.275,3.088,3.088,0,0,0-.822-2.233A2.768,2.768,0,0,0,1318.174,236.467Z" transform="translate(-1241.555 -206.368)"/>
      <path id="Trazado_1629" data-name="Trazado 1629" d="M1410.989,207.93h2.65v14.636h-2.65v-1.117a5.192,5.192,0,0,1-1.557,1.063,4.35,4.35,0,0,1-1.693.325,4.7,4.7,0,0,1-3.538-1.587,5.535,5.535,0,0,1-1.493-3.946,5.67,5.67,0,0,1,1.445-4.008,4.6,4.6,0,0,1,3.51-1.563,4.462,4.462,0,0,1,1.783.359,4.883,4.883,0,0,1,1.542,1.077Zm-2.785,6.25a2.676,2.676,0,0,0-2.041.869,3.128,3.128,0,0,0-.812,2.227,3.165,3.165,0,0,0,.826,2.252,2.679,2.679,0,0,0,2.036.883,2.725,2.725,0,0,0,2.07-.869,3.174,3.174,0,0,0,.822-2.275,3.088,3.088,0,0,0-.822-2.233A2.77,2.77,0,0,0,1408.2,214.18Z" transform="translate(-1318.462 -184.081)"/>
      <path id="Trazado_1630" data-name="Trazado 1630" d="M1498,234.03a5.591,5.591,0,0,1,2.809.748,5.391,5.391,0,0,1,2.052,2.029,5.457,5.457,0,0,1,.738,2.767,5.555,5.555,0,0,1-.742,2.8,5.347,5.347,0,0,1-2.023,2.033,5.592,5.592,0,0,1-2.825.733,5.272,5.272,0,0,1-3.877-1.615,5.6,5.6,0,0,1,.208-8.05A5.294,5.294,0,0,1,1498,234.03Zm.042,2.5a2.727,2.727,0,0,0-2.057.859,3.05,3.05,0,0,0-.822,2.2,3.1,3.1,0,0,0,.812,2.232,2.714,2.714,0,0,0,2.057.854,2.744,2.744,0,0,0,2.071-.864,3.406,3.406,0,0,0,.015-4.431A2.751,2.751,0,0,0,1498.047,236.525Z" transform="translate(-1395.19 -206.376)"/>
      <path id="Trazado_1631" data-name="Trazado 1631" d="M1584.945,235.795l-1.64,1.64a2.772,2.772,0,0,0-1.815-.99,1.136,1.136,0,0,0-.7.189.571.571,0,0,0-.252.471.58.58,0,0,0,.16.394,2.98,2.98,0,0,0,.792.49l.971.485a5.716,5.716,0,0,1,2.106,1.544,3.213,3.213,0,0,1-.461,4.192,3.953,3.953,0,0,1-2.771.942,4.4,4.4,0,0,1-3.688-1.8l1.631-1.775a3.754,3.754,0,0,0,1.092.877,2.417,2.417,0,0,0,1.111.335,1.326,1.326,0,0,0,.844-.252.73.73,0,0,0,.321-.583q0-.612-1.155-1.194l-.894-.446q-2.563-1.29-2.562-3.232a2.8,2.8,0,0,1,.966-2.14,3.507,3.507,0,0,1,2.471-.888,4.282,4.282,0,0,1,3.471,1.745Z" transform="translate(-1467.903 -206.393)"/>
      <path id="Trazado_1632" data-name="Trazado 1632" d="M831.95,374.03h2.727v9.232a4.808,4.808,0,0,0,.208,1.688,1.682,1.682,0,0,0,.689.79,2.176,2.176,0,0,0,1.16.3,2.262,2.262,0,0,0,1.238-.329,1.742,1.742,0,0,0,.719-.838,6.236,6.236,0,0,0,.2-1.945v-8.893h2.727v8.511a12.361,12.361,0,0,1-.242,2.99,4.231,4.231,0,0,1-.927,1.611,4.312,4.312,0,0,1-1.577,1.15,5.342,5.342,0,0,1-2.077.373,5.025,5.025,0,0,1-2.7-.713,4.159,4.159,0,0,1-1.646-1.786,9.431,9.431,0,0,1-.5-3.625Z" transform="translate(-830.896 -325.97)"/>
      <path id="Trazado_1633" data-name="Trazado 1633" d="M917.9,397.933h2.65v1.082a6.348,6.348,0,0,1,1.633-1.057,3.939,3.939,0,0,1,1.5-.3,3.627,3.627,0,0,1,2.665,1.1,3.768,3.768,0,0,1,.921,2.756v6.978h-2.621v-4.624a11.762,11.762,0,0,0-.169-2.511,1.715,1.715,0,0,0-.59-.945,1.652,1.652,0,0,0-1.041-.325,1.953,1.953,0,0,0-1.38.538,2.865,2.865,0,0,0-.8,1.488,12.014,12.014,0,0,0-.117,2.143v4.236H917.9V397.933Z" transform="translate(-904.318 -346.156)"/>
      <path id="Trazado_1634" data-name="Trazado 1634" d="M996.955,369.7a1.619,1.619,0,0,1,1.2.5,1.678,1.678,0,0,1,.5,1.223,1.657,1.657,0,0,1-.494,1.208,1.6,1.6,0,0,1-1.181.5,1.63,1.63,0,0,1-1.205-.509,1.7,1.7,0,0,1-.5-1.237,1.69,1.69,0,0,1,1.685-1.689Zm-1.325,4.348h2.65v10.559h-2.65Z" transform="translate(-970.411 -322.271)"/>
      <path id="Trazado_1635" data-name="Trazado 1635" d="M1037.379,371.57h2.65v14.636h-2.65v-1.117a5.192,5.192,0,0,1-1.557,1.063,4.35,4.35,0,0,1-1.692.325,4.7,4.7,0,0,1-3.537-1.587,5.535,5.535,0,0,1-1.493-3.946,5.67,5.67,0,0,1,1.445-4.008,4.6,4.6,0,0,1,3.51-1.563,4.462,4.462,0,0,1,1.783.359,4.883,4.883,0,0,1,1.542,1.077Zm-2.785,6.25a2.676,2.676,0,0,0-2.041.869,3.127,3.127,0,0,0-.812,2.227,3.166,3.166,0,0,0,.826,2.252,2.679,2.679,0,0,0,2.036.883,2.725,2.725,0,0,0,2.07-.869,3.175,3.175,0,0,0,.822-2.275,3.088,3.088,0,0,0-.822-2.233A2.763,2.763,0,0,0,1034.594,377.82Z" transform="translate(-999.31 -323.868)"/>
      <path id="Trazado_1636" data-name="Trazado 1636" d="M1124.395,397.67a5.592,5.592,0,0,1,2.809.748,5.391,5.391,0,0,1,2.052,2.029,5.459,5.459,0,0,1,.738,2.767,5.555,5.555,0,0,1-.742,2.8,5.346,5.346,0,0,1-2.023,2.033,5.591,5.591,0,0,1-2.825.733,5.273,5.273,0,0,1-3.877-1.615,5.6,5.6,0,0,1,.209-8.05A5.289,5.289,0,0,1,1124.395,397.67Zm.044,2.494a2.727,2.727,0,0,0-2.057.859,3.051,3.051,0,0,0-.822,2.2,3.1,3.1,0,0,0,.812,2.232,2.714,2.714,0,0,0,2.057.854,2.744,2.744,0,0,0,2.071-.864,3.406,3.406,0,0,0,.015-4.431A2.751,2.751,0,0,0,1124.439,400.164Z" transform="translate(-1076.037 -346.164)"/>
      <path id="Trazado_1637" data-name="Trazado 1637" d="M1211.335,399.425l-1.64,1.64a2.771,2.771,0,0,0-1.815-.99,1.136,1.136,0,0,0-.7.189.571.571,0,0,0-.252.471.58.58,0,0,0,.16.394,2.983,2.983,0,0,0,.792.49l.971.485a5.715,5.715,0,0,1,2.106,1.544,3.213,3.213,0,0,1-.461,4.192,3.954,3.954,0,0,1-2.771.942,4.4,4.4,0,0,1-3.688-1.8l1.631-1.775a3.756,3.756,0,0,0,1.092.877,2.417,2.417,0,0,0,1.111.335,1.325,1.325,0,0,0,.844-.252.73.73,0,0,0,.321-.583q0-.612-1.154-1.194l-.894-.446q-2.562-1.29-2.562-3.231a2.8,2.8,0,0,1,.966-2.14,3.507,3.507,0,0,1,2.471-.888,4.282,4.282,0,0,1,3.471,1.745Z" transform="translate(-1148.75 -346.173)"/>
    </g>
    <g id="Grupo_1369" data-name="Grupo 1369" transform="translate(-1145.932 -1884.357)">
      <path id="Trazado_1648" data-name="Trazado 1648" d="M1203.694,1888.46V1879a43.357,43.357,0,1,0,0,86.715v-9.46a33.9,33.9,0,0,1,0-67.8" fill="#309eff"/>
      <path id="Trazado_1649" data-name="Trazado 1649" d="M1464.023,2198.316l13.509,10.279h9.848l12.826-10.079.365-30.52H1491.6v26.768l-5.13,4.814h-8.422l-4.858-3.912v-28.325h-9.584Z" transform="translate(-255.457 -242.881)" fill="#d61f24"/>
      <path id="Trazado_1650" data-name="Trazado 1650" d="M1524.337,1990.664h9.234l-9.234-9.234Z" transform="translate(-306.611 -86.28)" fill="none"/>
      <path id="Trazado_1651" data-name="Trazado 1651" d="M1501.141,1909.114l-4.73-4.73L1473.8,1881.77l-2.154-2.154c-.344-.06-.691-.115-1.037-.164a43.5,43.5,0,0,0-6.269-.452v40.835h9.46v-10.721h13.964l4.087,4.087v6.9h10.139V1909.96Zm-27.344-4.73v-9.234l9.234,9.234Z" transform="translate(-256.07)" fill="#7dc349"/>
    </g>
  </g>
</svg>
