<svg xmlns="http://www.w3.org/2000/svg" width="94.271" height="94.27" viewBox="0 0 94.271 94.27">
  <path id="Trazado_1373" data-name="Trazado 1373" d="M787.635,123l-2.672-2.672-5.5,5.5-7.069-7.069,5.5-5.5-2.672-2.672-5.5,5.5-7.069-7.069,5.5-5.5-2.672-2.672-5.5,5.5-7.069-7.069,5.5-5.5-2.672-2.672-5.5,5.5-7.069-7.069,5.5-5.5L746,81.365l-5.5,5.5-5.5-5.5-2.672,2.672,5.5,5.5L730.758,96.6l-5.5-5.5-2.672,2.672,5.5,5.5-7.069,7.069-5.5-5.5-2.672,2.672,5.5,5.5-7.069,7.069-5.5-5.5-2.672,2.672,5.5,5.5-7.069,7.069-5.5-5.5L693.364,123l5.5,5.5-5.5,5.5,2.672,2.672,5.5-5.5,7.069,7.069-5.5,5.5,2.672,2.672,5.5-5.5,7.069,7.069-5.5,5.5,2.672,2.672,5.5-5.5,7.069,7.069-5.5,5.5,2.672,2.672,5.5-5.5,7.069,7.069-5.5,5.5L735,175.635l5.5-5.5,5.5,5.5,2.672-2.672-5.5-5.5,7.069-7.069,5.5,5.5,2.672-2.672-5.5-5.5,7.069-7.069,5.5,5.5,2.672-2.672-5.5-5.5,7.069-7.069,5.5,5.5,2.672-2.672-5.5-5.5,7.069-7.069,5.5,5.5L787.634,134l-5.5-5.5Zm-20.584-4.243-7.069,7.069-7.069-7.069,7.069-7.069ZM737.827,128.5l-7.069,7.069-7.069-7.069,7.069-7.069Zm-4.4-9.741,7.069-7.069,7.069,7.069-7.069,7.069Zm7.069,12.413,7.069,7.069L740.5,145.31l-7.069-7.069Zm2.672-2.672,7.069-7.069,7.069,7.069-7.069,7.069Zm14.138-19.482-7.069,7.069-7.069-7.069,7.069-7.069ZM740.5,92.208l7.069,7.069-7.069,7.069-7.069-7.069Zm-9.741,9.741,7.069,7.069-7.069,7.069-7.069-7.069Zm-9.741,9.741,7.069,7.069-7.069,7.069-7.069-7.069Zm-16.81,16.81,7.069-7.069,7.069,7.069-7.069,7.069Zm9.741,9.741,7.069-7.069,7.069,7.069-7.069,7.069Zm9.741,9.741,7.069-7.069,7.069,7.069-7.069,7.069Zm16.81,16.81-7.069-7.069,7.069-7.069,7.069,7.069Zm9.741-9.741-7.069-7.069,7.069-7.069,7.069,7.069Zm9.741-9.741-7.069-7.069,7.069-7.069,7.069,7.069Zm9.741-9.741-7.069-7.069,7.069-7.069,7.069,7.069Z" transform="translate(-693.364 -81.365)"/>
</svg>
