<svg xmlns="http://www.w3.org/2000/svg" width="67.614" height="81.942" viewBox="0 0 67.614 81.942">
  <g id="Grupo_1316" data-name="Grupo 1316" transform="translate(-127.051 -74.125)">
    <path id="Trazado_1263" data-name="Trazado 1263" d="M264.379,114.117q0,16.393,0,32.786c0,1.2,0,1.2-1.2,1.2a8.7,8.7,0,0,1-1.1-.005c-5.7-.71-10.917,1.223-16.2,2.86-5.377,1.665-10.771,3.273-16.158,4.9-1.153.349-1.155.346-1.155-.847q0-31.959,0-63.919a9.066,9.066,0,0,1,0-1.009c.082-.727-.22-1-.938-.928a11.484,11.484,0,0,1-1.193.006c-1.281,0-1.287,0-1.287,1.33q0,28.057,0,56.113c0,1.5,0,1.5-1.512,1.5q-3.582,0-7.163,0c-1.271,0-1.277-.006-1.277-1.265q0-18.689,0-37.378c0-.429-.029-.86.008-1.285a1.409,1.409,0,0,0-.806-1.548,3.6,3.6,0,0,1-1.887-3.174c-.048-2.05-.053-4.1,0-6.152a3.679,3.679,0,0,1,1.961-3.228,1.355,1.355,0,0,0,.736-1.4c-.022-3.857.013-7.715-.03-11.571-.01-.888.266-1.144,1.147-1.133,3.734.045,7.469,0,11.2.035.783.008,1.09-.177,1.049-1.016-.069-1.374.012-2.755-.031-4.131-.025-.79.211-.878.894-.571,3.963,1.781,7.943,3.524,11.908,5.3A4.6,4.6,0,0,0,243.3,80c6.643-.015,13.286.009,19.929-.032.934-.006,1.174.251,1.171,1.177Q264.351,97.632,264.379,114.117Zm-32.871,1.125q0,17.856,0,35.712c0,1.336,0,1.34,1.309.944,6.554-1.99,13.1-4,19.669-5.95a1.384,1.384,0,0,0,1.167-1.605c-.038-6.12-.019-12.24-.019-18.36q0-18.085.018-36.17a1.61,1.61,0,0,0-1.105-1.725c-2.04-.905-4.047-1.887-6.053-2.868-4.617-2.258-9.318-4.334-14.021-6.4-.927-.407-.946-.388-.963.623,0,.122,0,.245,0,.367Q231.507,97.523,231.507,115.241Zm17.314-32.327a1.621,1.621,0,0,0,.857.6c1.9.917,3.785,1.874,5.721,2.712a1.771,1.771,0,0,1,1.206,1.935q-.052,27.543-.025,55.087c0,.4.018.8,0,1.193-.02.538.2.774.759.757.887-.027,1.775.006,2.662,0,1.6-.019,1.43.162,1.43-1.424q.008-28.508,0-57.016c0-1.04-.014-2.081.005-3.121.009-.478-.111-.733-.66-.731C256.838,82.921,252.893,82.914,248.821,82.914Zm-26.619,32.8q0-8.173,0-16.346c0-4.041.018-8.081-.008-12.121,0-.76.247-1.034,1.007-.994.977.052,1.958.012,2.938.012,2.484,0,2.461,0,2.443-2.471,0-.675-.2-.9-.888-.894-2.877.032-5.755.037-8.632,0-.758-.011-.931.283-.926.966q.036,4.5,0,9a1.167,1.167,0,0,0,.673,1.16,3.9,3.9,0,0,1,2.06,3.551c0,1.867,0,3.734,0,5.6a3.866,3.866,0,0,1-1.971,3.508,1.4,1.4,0,0,0-.769,1.39q.026,18.045,0,36.089c0,.767.17,1.149,1.017,1.056a15.849,15.849,0,0,1,1.743-.014c1.307,0,1.309,0,1.309-1.3Q222.2,129.807,222.2,115.711Zm-4.275-15.381h0c0-.855.014-1.71,0-2.564-.019-.892-.467-1.407-1.2-1.43a1.215,1.215,0,0,0-1.277,1.351c-.028,1.8-.019,3.6,0,5.4a1.178,1.178,0,0,0,1.2,1.331c.757.038,1.253-.474,1.278-1.344C217.948,102.162,217.928,101.246,217.928,100.33Z" transform="translate(-69.735)" fill="#575759"/>
    <path id="Trazado_1264" data-name="Trazado 1264" d="M133.05,211.987c-1.437,0-2.875.013-4.312,0a1.5,1.5,0,0,1-1.688-1.425,1.485,1.485,0,0,1,1.643-1.472q4.449-.029,8.9,0a1.441,1.441,0,0,1,1.582,1.426c.013.872-.6,1.454-1.629,1.469C136.047,212,134.549,211.986,133.05,211.987Z" transform="translate(0 -110.155)" fill="#575759"/>
    <path id="Trazado_1265" data-name="Trazado 1265" d="M163.178,108.532a1.412,1.412,0,0,1-.883,1.279,1.461,1.461,0,0,1-1.748-.417q-1.826-2-3.64-4.01c-.657-.725-1.325-1.442-1.965-2.183a1.449,1.449,0,0,1-.035-2.13,1.5,1.5,0,0,1,2.2.189c1.883,2.05,3.743,4.123,5.61,6.189A1.6,1.6,0,0,1,163.178,108.532Z" transform="translate(-22.374 -21.673)" fill="#575759"/>
    <path id="Trazado_1266" data-name="Trazado 1266" d="M159.86,285.367a1.5,1.5,0,0,1-.428,1.079c-1.956,2.025-3.9,4.061-5.87,6.072a1.477,1.477,0,0,1-2.2.083,1.432,1.432,0,0,1,.134-2.118c1.9-1.991,3.824-3.964,5.735-5.947a1.473,1.473,0,0,1,1.739-.45A1.374,1.374,0,0,1,159.86,285.367Z" transform="translate(-19.513 -171.29)" fill="#575759"/>
    <path id="Trazado_1267" data-name="Trazado 1267" d="M329.66,283.671c0-1.866-.007-3.731,0-5.6.006-1.182.523-1.841,1.432-1.865s1.5.66,1.506,1.8q.021,5.688,0,11.377c0,1.094-.569,1.753-1.444,1.771-.914.019-1.485-.65-1.493-1.8C329.651,287.464,329.66,285.567,329.66,283.671Z" transform="translate(-165.387 -164.96)" fill="#575759"/>
  </g>
</svg>
